<?xml version="1.0" encoding="UTF-8" standalone="no"?>
<!-- Created with Inkscape (http://www.inkscape.org/) -->

<svg
   xmlns:dc="http://purl.org/dc/elements/1.1/"
   xmlns:cc="http://creativecommons.org/ns#"
   xmlns:rdf="http://www.w3.org/1999/02/22-rdf-syntax-ns#"
   xmlns:svg="http://www.w3.org/2000/svg"
   xmlns="http://www.w3.org/2000/svg"
   xmlns:xlink="http://www.w3.org/1999/xlink"
   version="1.1"
   width="237"
   height="140"
   id="svg2">
  <defs
     id="defs4">
    <linearGradient
       x1="0"
       y1="0"
       x2="1"
       y2="0"
       id="linearGradient4648"
       gradientUnits="userSpaceOnUse"
       gradientTransform="matrix(0,-93.50249,65.53984,0,458.6511,332.6686)"
       spreadMethod="pad">
      <stop
         id="stop4650"
         style="stop-color:#366917;stop-opacity:1"
         offset="0" />
      <stop
         id="stop4652"
         style="stop-color:#59ab29;stop-opacity:1"
         offset="0.47999999" />
      <stop
         id="stop4654"
         style="stop-color:#66c430;stop-opacity:1"
         offset="1" />
    </linearGradient>
    <clipPath
       id="clipPath868">
      <path
         d="m 458.6511,328.9703 c 7.4582,-0.0105 10.6166,-5.203 13.9697,-10.7842 l 27.4575,-47.0851 c 1.2943,-2.3499 2.571,-5.19 2.5319,-7.8497 -0.1012,-6.9262 -9.0927,-9.4612 -14.4732,-9.7268 -3.9376,-0.1942 -7.8287,0.7293 -11.3309,2.3037 l -2.1869,-2.8154 c 1.2747,-5.4317 6.3034,-12.0285 13.2137,-11.9792 12.0013,0.0865 18.305,11.0628 23.1298,20.0013 l 8.938,16.5588 -25.9441,44.4898 c -2.3962,3.9798 1.5375,6.8734 5.718,6.8984 l 0.9533,3.6867 -41.0196,0 -0.9572,-3.6983 z"
         id="path870" />
    </clipPath>
    <linearGradient
       x1="0"
       y1="0"
       x2="1"
       y2="0"
       id="linearGradient874"
       gradientUnits="userSpaceOnUse"
       gradientTransform="matrix(0,-93.50249,65.53984,0,458.6511,332.6686)"
       spreadMethod="pad">
      <stop
         id="stop876"
         style="stop-color:#1a5c1c;stop-opacity:1"
         offset="0" />
      <stop
         id="stop878"
         style="stop-color:#2da138;stop-opacity:1"
         offset="0.47999999" />
      <stop
         id="stop880"
         style="stop-color:#61c332;stop-opacity:1"
         offset="1" />
    </linearGradient>
    <linearGradient
       x1="0"
       y1="0"
       x2="1"
       y2="0"
       id="linearGradient4334"
       xlink:href="#linearGradient874"
       gradientUnits="userSpaceOnUse"
       gradientTransform="matrix(0,-93.50249,65.53984,0,458.6511,332.6686)"
       spreadMethod="pad" />
  </defs>
  <metadata
     id="metadata7">
    <rdf:RDF>
      <cc:Work
         rdf:about="">
        <dc:format>image/svg+xml</dc:format>
        <dc:type
           rdf:resource="http://purl.org/dc/dcmitype/StillImage" />
        <dc:title></dc:title>
      </cc:Work>
    </rdf:RDF>
  </metadata>
  <g
     transform="translate(0,-912.36214)"
     id="layer1">
    <g
       transform="matrix(0.46057662,0,0,0.46057662,-56.182799,846.94264)"
       id="g4462">
      <g
         transform="matrix(2.4117335,0,0,-2.4117335,-981.98942,947.03018)"
         id="g864">
        <g
           clip-path="url(#clipPath868)"
           id="g866">
          <g
             id="g872">
            <path
               d="m 458.6511,328.9703 c 7.4582,-0.0105 10.6166,-5.203 13.9697,-10.7842 l 27.4575,-47.0851 c 1.2943,-2.3499 2.571,-5.19 2.5319,-7.8497 -0.1012,-6.9262 -9.0927,-9.4612 -14.4732,-9.7268 -3.9376,-0.1942 -7.8287,0.7293 -11.3309,2.3037 l -2.1869,-2.8154 c 1.2747,-5.4317 6.3034,-12.0285 13.2137,-11.9792 12.0013,0.0865 18.305,11.0628 23.1298,20.0013 l 8.938,16.5588 -25.9441,44.4898 c -2.3962,3.9798 1.5375,6.8734 5.718,6.8984 l 0.9533,3.6867 -41.0196,0 -0.9572,-3.6983 z"
               id="path882"
               style="fill:url(#linearGradient4334);stroke:none" />
          </g>
        </g>
      </g>
      <path
         d="m 551.52123,183.88992 0,-29.91828 -6.09324,0 -12.32685,20.40134 0,-20.40134 -6.03296,0 0,29.91828 6.03296,0 0.0603,0 12.26656,-20.30415 0,20.30415 6.09324,0 z m -20.0813,-35.5 c 4.59267,3.47218 11.11665,3.47218 15.71003,0 l -2.49735,-3.66776 c -3.30527,2.39751 -7.40908,2.39678 -10.7146,0 l -2.49808,3.66776 z"
         id="path884"
         style="fill:#1f1917;fill-opacity:1;fill-rule:nonzero;stroke:none" />
      <path
         d="m 354.54507,173.95719 0,-10.32704 c 0,-6.49938 -3.47217,-10.20453 -9.91078,-10.20453 -2.42958,0 -6.61129,0.97193 -8.313,2.36881 -0.55036,-0.92635 -1.10892,-1.8937 -2.36398,-2.35458 l -3.83659,3.53584 c 1.45741,0.97217 1.50396,2.8924 1.50396,3.73892 l 0,32.81187 6.21576,0 0,-10.45752 c 1.8826,0.92153 4.84975,1.28594 6.30788,1.28594 5.83158,0 10.39675,-3.65474 10.39675,-10.39771 z m -6.27582,0.64948 c 0,2.60877 -2.60177,4.19208 -4.9713,4.19208 -1.94361,0 -4.24272,-0.7896 -5.45751,-1.63998 l 0,-15.57401 c 0,-0.12155 0,-0.24335 0,-0.54626 1.39664,-1.39808 4.1817,-2.18696 5.82192,-2.18696 2.36929,0 4.60689,1.70365 4.60689,4.31242 l 0,11.44271 z"
         id="path886"
         style="fill:#1f1917;fill-opacity:1;fill-rule:nonzero;stroke:none" />
      <path
         d="m 410.62897,183.89136 0,-29.99063 -20.54677,0 0,18.57373 c 0.008,3.77364 -2.35313,6.92336 -5.649,7.01621 -1.52663,0.0425 -3.86311,-0.97627 -3.86311,-3.29249 l 0,-12.62881 c 0,-6.19574 -3.29057,-10.14375 -10.27592,-10.14375 -4.73688,0 -8.44299,2.00439 -10.44738,4.06956 l 3.28019,4.0288 c 2.06517,-2.00439 5.04173,-2.79471 6.56016,-2.79471 2.06516,0 4.66718,0.91404 4.66718,3.70587 l 0,3.19072 -5.09237,0 c -7.28705,0 -10.33597,4.62691 -10.33597,9.48535 0,4.67683 2.56078,9.24369 9.91079,9.24369 2.24773,0 5.14349,-1.13641 6.92456,-2.87961 2.96209,2.68136 5.70278,3.1695 8.81899,3.07086 7.06879,-0.22357 11.59923,-4.03411 11.42076,-12.28079 l 0,-13.2368 8.54839,0 -0.003,24.8628 6.08239,0 z m -36.27465,-6.88646 c -1.48153,1.92046 -4.18604,2.46745 -6.24639,2.09748 -1.59367,-0.28651 -2.9206,-1.89779 -2.9534,-3.61856 -0.0429,-2.21228 1.35635,-4.61051 4.60231,-4.61509 l 4.59748,-0.007 0,6.14244 z"
         id="path888"
         style="fill:#1f1917;fill-opacity:1;fill-rule:nonzero;stroke:none" />
      <path
         d="m 492.78974,183.91934 -11.12485,-15.83038 10.39602,-14.11732 -7.07362,0 -7.79013,11.73477 -3.81947,0 0,-11.80568 -6.09324,0 0,30.01861 5.97217,0 0.0574,-13.08558 3.79438,0 8.58168,13.08558 7.09966,0 z"
         id="path890"
         style="fill:#1f1917;fill-opacity:1;fill-rule:nonzero;stroke:none" />
      <path
         d="m 416.926,183.95696 0,-30.05623 6.21577,0 -7.3e-4,10.18693 4.39586,0 c 7.28899,0 11.15355,4.44699 11.08989,9.56348 -0.063,5.11626 -3.66488,10.30727 -11.01005,10.30655 l -10.69074,-7.3e-4 z m 6.21577,-5.19222 5.22574,0.005 c 2.7448,0.002 3.83369,-3.01129 3.83731,-5.01568 0.003,-2.00463 -1.1492,-4.54009 -3.93233,-4.54009 l -5.13072,0 0,9.55047 z"
         id="path892"
         style="fill:#1f1917;fill-opacity:1;fill-rule:nonzero;stroke:none" />
      <path
         d="m 463.32052,180.51831 -2.55113,-4.51428 c -3.52354,2.4906 -5.65045,3.21942 -7.41077,3.21942 -2.4906,0 -4.97204,-1.2758 -4.97204,-3.88723 l 0,-11.62528 c 0,-2.67244 2.48096,-4.55576 5.33645,-4.55576 1.82254,0 4.31242,1.093 6.13497,3.03661 l 3.21918,-4.08957 c -2.18696,-2.67221 -5.28435,-4.61582 -10.08297,-4.61582 -6.1357,0 -10.88295,3.76688 -10.88295,10.26554 l 0,11.23772 c 0,6.37758 4.92982,9.36524 11.00402,9.36524 5.04124,0 8.44371,-2.37918 10.20524,-3.83659"
         id="path894"
         style="fill:#1f1917;fill-opacity:1;fill-rule:nonzero;stroke:none" />
      <path
         d="m 520.77115,183.88992 0,-29.91828 -6.09325,0 -12.32685,20.40134 0,-20.40134 -6.03319,0 0,29.91828 6.03319,0 0.0608,0 12.26607,-20.30415 0,20.30415 6.09325,0 z"
         id="path896"
         style="fill:#1f1917;fill-opacity:1;fill-rule:nonzero;stroke:none" />
      <path
         d="m 329.96348,144.72216 -6.95399,0 -5.36876,17.84224 c -0.0984,0.32897 -0.23105,0.68783 -0.30606,1.0385 -0.0753,0.35066 -0.14784,0.65695 -0.18328,0.89692 -0.0357,0.23852 -0.0608,0.37671 -0.0608,0.38684 0,-0.01 -0.0217,-0.13264 -0.0611,-0.36634 -0.041,-0.23442 -0.10804,-0.53589 -0.18377,-0.87642 -0.0759,-0.34054 -0.16279,-0.69386 -0.30484,-1.01872 l -7.93389,-17.90302 -7.07626,0 12.70742,27.91099 -0.8031,2.02345 c -1.01872,2.2376 -3.69454,4.69878 -8.48328,4.90305 l 0.75945,4.83818 c 7.04082,0.15459 11.67593,-2.97029 13.46978,-8.20424 l 10.78238,-31.47143 z"
         id="path898"
         style="fill:#1f1917;fill-opacity:1;fill-rule:nonzero;stroke:none" />
      <path
         d="m 633.0605,234.62507 0,-29.91828 -6.09325,0 -12.32685,20.40134 0,-20.40134 -6.03295,0 0,29.91828 6.03295,0 0.0603,0 12.26656,-20.30414 0,20.30414 6.09325,0 z m -20.08203,-35.50023 c 4.59339,3.47217 11.11737,3.47217 15.71003,0 l -2.49735,-3.66849 c -3.30527,2.39823 -7.40908,2.39775 -10.71388,0 l -2.4988,3.66849 z"
         id="path900"
         style="fill:#1f1917;fill-opacity:1;fill-rule:nonzero;stroke:none" />
      <path
         d="m 602.31042,234.62507 0,-29.91828 -6.0935,0 0,29.91828 6.0935,0 z"
         id="path902"
         style="fill:#1f1917;fill-opacity:1;fill-rule:nonzero;stroke:none" />
      <path
         d="m 571.16215,234.7623 0,-30.05551 6.21576,0 -7.2e-4,10.18693 4.39586,0 c 7.28899,0 11.15355,4.44699 11.09012,9.56348 -0.063,5.11626 -3.66511,10.30727 -11.01005,10.30582 l -10.69097,-7.2e-4 z m 6.21576,-5.19222 5.22574,0.007 c 2.7448,0.002 3.83394,-3.01153 3.8366,-5.01592 0.003,-2.00439 -1.14847,-4.54009 -3.93234,-4.54009 l -5.13,0 0,9.54974 z"
         id="path904"
         style="fill:#1f1917;fill-opacity:1;fill-rule:nonzero;stroke:none" />
      <path
         d="m 336.71368,224.70272 0,-10.32729 c 0,-6.49938 -2.99417,-10.20525 -9.43278,-10.20525 -1.73572,0 -3.62604,0.49899 -4.94767,1.29125 l 0,-5.64274 -6.21479,0 0,5.64153 c -1.32091,-0.79177 -3.21315,-1.29004 -4.94888,-1.29004 -6.43788,0 -9.43301,3.7066 -9.43301,10.20525 l 0,10.32729 c 0,6.742 4.08812,10.39746 9.9197,10.39746 1.45813,0 3.81126,-0.7076 4.46146,-1.28593 l 0,10.45752 6.21504,0 0,-10.45752 c 0.64996,0.57833 3.00381,1.28593 4.46267,1.28593 5.83085,0 9.91826,-3.65474 9.91826,-10.39746 z m -20.59597,-13.26212 0,0.0169 0,0.0145 0,0.0145 0,0.0145 0,0.0169 0,0.0145 0,0.0145 0,0.0145 0,0.0169 0,0.0145 0,0.0169 0,0.0145 0,0.0169 0,0.0169 0,0.0169 0,0.0145 0,0.0169 0,0.0169 0,0.0169 0,0.0145 0,0.0169 0,0.0169 0,0.0169 0,0.0145 0,0.0169 0,0.0169 0,0.0169 0,0.0145 0,0.0169 0,0.0145 0,0.0169 0,0.0145 0,0.0169 0,0.0145 0,0.0169 0,0.0145 0,0.0145 0,0.0145 0,0.0145 0,0.0145 0,0.0145 0,0.0145 0,0.0145 0,0.0121 0,0.0145 0,0.0121 0,0.0121 0,0.0121 0,0.0121 0,0.0121 0,0.0121 0,0.0121 0,0.0121 0,0.01 0,0.01 0,0.01 0,0.01 0,0.01 0,0.007 0,0.007 0,0.007 0,0.007 0,0.005 0,0.005 0,15.57328 c -0.59883,0.9196 -1.66747,1.64095 -3.61108,1.64095 -2.36953,0 -4.49427,-1.58355 -4.49427,-4.19232 l 0,-11.44271 c 0,-2.6095 1.76057,-4.31314 4.12985,-4.31314 1.64023,0 3.4688,0.92707 3.9755,1.84449 z m 14.32015,13.91136 c 0,2.60539 -2.12474,4.19231 -4.49354,4.19231 -1.94434,0 -3.01346,-0.72135 -3.61157,-1.64094 l 0,-15.57329 0,-0.005 0,-0.005 0,-0.007 0,-0.007 0,-0.007 0,-0.007 0,-0.01 0,-0.01 0,-0.01 0,-0.01 0,-0.01 0,-0.0121 0,-0.0121 0,-0.0121 0,-0.0121 0,-0.0121 0,-0.0121 0,-0.0121 0,-0.0121 0,-0.0145 0,-0.0121 0,-0.0145 0,-0.0145 0,-0.0145 0,-0.0145 0,-0.0145 0,-0.0145 0,-0.0145 0,-0.0145 0,-0.0169 0,-0.0145 0,-0.0169 0,-0.0145 0,-0.0169 0,-0.0145 0,-0.0169 0,-0.0145 0,-0.0169 0,-0.0169 0,-0.0169 0,-0.0145 0,-0.0169 0,-0.0169 0,-0.0169 0,-0.0145 0,-0.0169 0,-0.0169 0,-0.0169 0,-0.0145 0,-0.0169 0,-0.0169 0,-0.0169 0,-0.0145 0,-0.0169 0,-0.0145 0,-0.0169 0,-0.0145 0,-0.0145 0,-0.0145 0,-0.0169 0,-0.0145 0,-0.0145 0,-0.0145 0,-0.0169 c 0.50646,-0.91742 2.336,-1.84449 3.97598,-1.84449 2.36808,0 4.12913,1.70727 4.12913,4.31314 l 0,11.44271 z"
         id="path906"
         style="fill:#1f1917;fill-opacity:1;fill-rule:nonzero;stroke:none" />
      <path
         d="m 364.56607,231.14108 -2.6218,-4.69516 c -2.97656,2.42886 -5.8827,3.21918 -8.31253,3.21918 -2.97656,0 -5.27566,-1.63998 -5.27566,-4.85988 l 0,-2.77639 15.55013,0 0,-7.28898 c 0,-7.5931 -4.8073,-10.50889 -10.57786,-10.50889 -6.62117,0 -11.24736,3.40247 -11.24736,10.8733 l 0,9.96263 c 0,6.68074 4.38284,10.03329 11.06479,10.03329 4.9209,0 7.89674,-1.59029 11.42029,-3.9591 z m -6.93495,-17.96114 0,3.72227 -9.27504,0 0,-3.29636 c 0,-2.67389 2.2991,-4.19159 4.97227,-4.19159 1.63998,0 4.30277,1.09589 4.30277,3.76568"
         id="path908"
         style="fill:#1f1917;fill-opacity:1;fill-rule:nonzero;stroke:none" />
      <path
         d="m 393.7724,229.58117 0,-24.864 -20.54677,0 0,16.53315 c 0.008,3.77364 -2.20408,8.23631 -5.50188,8.33085 l -0.57231,0 0,12.38691 5.9196,0 0,-7.26028 18.02698,0 -7.2e-4,7.26028 6.08047,0 0,-12.38691 -3.40537,0 z m -17.04035,0 c 1.52735,-1.67012 2.4836,-4.86277 2.41318,-8.1244 l 0,-11.6125 8.54767,0 -0.002,19.7369 -10.95868,0 z"
         id="path910"
         style="fill:#1f1917;fill-opacity:1;fill-rule:nonzero;stroke:none" />
      <path
         d="m 564.86536,234.62507 0,-29.91828 -6.09349,0 0,11.68678 -12.32661,0 0,-11.68678 -6.0332,0 0,29.91828 6.0332,0 0,-13.10487 12.32661,0 0,13.10487 6.09349,0 z"
         id="path912"
         style="fill:#1f1917;fill-opacity:1;fill-rule:nonzero;stroke:none" />
      <path
         d="m 451.79581,224.76349 0,-10.32704 c 0,-6.49938 -3.47217,-10.20549 -9.91005,-10.20549 -2.43031,0 -6.61225,0.97217 -8.31373,2.36953 -0.54963,-0.92635 -1.10891,-1.8937 -2.36398,-2.35506 l -3.83658,3.53633 c 1.4574,0.97216 1.50468,2.89191 1.50468,3.73891 l 0,32.81211 6.21479,0 0,-10.45776 c 1.88284,0.9208 4.85048,1.28594 6.30813,1.28594 5.83133,0 10.39674,-3.65474 10.39674,-10.39747 z m -6.27581,0.64876 c 0,2.60877 -2.60202,4.1928 -4.97155,4.1928 -1.94337,0 -4.24248,-0.79033 -5.45751,-1.6407 l 0,-15.57353 c 0,-0.12228 0,-0.24334 0,-0.54674 1.39688,-1.39736 4.18194,-2.18696 5.82265,-2.18696 2.3688,0 4.60641,1.70413 4.60641,4.3129 l 0,11.44223 z"
         id="path914"
         style="fill:#1f1917;fill-opacity:1;fill-rule:nonzero;stroke:none" />
      <path
         d="m 507.87971,234.69742 0,-29.9899 -20.54748,0 0,18.57372 c 0.008,3.77388 -2.35241,6.92337 -5.64828,7.01622 -1.52663,0.0424 -3.86336,-0.97555 -3.86336,-3.29226 l 0,-12.62977 c 0,-6.19574 -3.29033,-10.14375 -10.27568,-10.14375 -4.73712,0 -8.44299,2.0044 -10.44738,4.0698 l 3.27995,4.02856 c 2.06469,-2.00439 5.04197,-2.79471 6.5604,-2.79471 2.06517,0 4.66718,0.91404 4.66718,3.70611 l 0,3.19048 -5.09261,0 c -7.28681,0 -10.33645,4.62691 -10.33645,9.48559 0,4.67683 2.56151,9.24345 9.91127,9.24345 2.24797,0 5.14373,-1.13617 6.92456,-2.87961 2.96233,2.68209 5.70303,3.1695 8.81899,3.0711 7.06831,-0.22357 11.59948,-4.03435 11.42028,-12.28103 l 0,-13.23656 8.54888,0 -0.003,24.86256 6.08239,0 z m -36.27465,-6.88622 c -2.28897,2.96619 -9.10694,3.34918 -9.19979,-1.5206 -0.0432,-2.21276 1.35636,-4.61099 4.60231,-4.61581 l 4.59748,-0.007 0,6.14268 z"
         id="path916"
         style="fill:#1f1917;fill-opacity:1;fill-rule:nonzero;stroke:none" />
      <path
         d="m 514.17675,234.7623 0,-30.05551 6.21504,0 -7.3e-4,10.18693 4.39563,0 c 7.2897,0 11.15378,4.44699 11.09084,9.56348 -0.063,5.11626 -3.6656,10.30727 -11.01005,10.30582 l -10.69073,-7.2e-4 z m 6.21504,-5.19222 5.22622,0.007 c 2.7448,0.002 3.83393,-3.01153 3.83659,-5.01592 0.003,-2.00439 -1.14847,-4.54009 -3.93209,-4.54009 l -5.13072,0 0,9.54974 z"
         id="path918"
         style="fill:#1f1917;fill-opacity:1;fill-rule:nonzero;stroke:none" />
      <path
         d="m 423.62846,231.14108 -2.62108,-4.69516 c -2.97728,2.42886 -5.8827,3.21918 -8.31301,3.21918 -2.97656,0 -5.27517,-1.63998 -5.27517,-4.85988 l 0,-2.77639 15.55013,0 0,-7.28898 c 0,-7.5931 -4.80803,-10.50889 -10.57786,-10.50889 -6.6219,0 -11.24809,3.40247 -11.24809,10.8733 l 0,9.96263 c 0,6.68074 4.38284,10.03329 11.06551,10.03329 4.92018,0 7.89602,-1.59029 11.41957,-3.9591 z m -6.93495,-17.96114 0,3.72227 -9.27431,0 0,-3.29636 c 0,-2.67389 2.29861,-4.19159 4.97227,-4.19159 1.63998,0 4.30204,1.09589 4.30204,3.76568"
         id="path920"
         style="fill:#1f1917;fill-opacity:1;fill-rule:nonzero;stroke:none" />
      <path
         d="m 327.39016,255.52323 -6.76178,0 -6.12556,23.25875 c 0,0 0.0603,-1.76104 -0.66854,-4.25212 l -5.21416,-19.00663 -6.88357,0.06 c 0,0 8.01853,25.35166 9.90185,29.78491 -0.92008,3.92485 -3.06339,6.5329 -7.59792,6.96364 l 0.5887,4.54419 c 6.88695,-0.0169 10.79467,-3.71215 12.21109,-8.28576 l 10.54989,-33.06703 z"
         id="path922"
         style="fill:#1f1917;fill-opacity:1;fill-rule:nonzero;stroke:none" />
      <path
         d="m 355.73936,285.44078 0,-29.91755 -6.09325,0 0,11.68605 -12.32661,0 0,-11.68605 -6.03319,0 0,29.91755 6.03319,0 0,-13.10415 12.32661,0 0,13.10415 6.09325,0 z"
         id="path924"
         style="fill:#1f1917;fill-opacity:1;fill-rule:nonzero;stroke:none" />
      <path
         d="m 386.48968,285.44078 0,-29.91755 -6.09324,0 -12.32685,20.40061 0,-20.40061 -6.03319,0 0,29.91755 6.03319,0 0.0603,0 12.26656,-20.30414 0,20.30414 6.09324,0 z"
         id="path926"
         style="fill:#1f1917;fill-opacity:1;fill-rule:nonzero;stroke:none" />
      <path
         d="m 392.78672,285.44006 0,-29.91611 10.68736,-7.2e-4 c 7.34372,-7.3e-4 9.63849,4.47376 9.53334,7.89336 -0.10467,3.4196 -2.00246,5.14157 -3.65064,5.99412 1.83557,0.51129 5.08079,2.81305 5.07597,7.13029 -0.005,4.31652 -3.19675,8.90026 -10.53903,8.89978 l -11.107,-7.2e-4 z m 6.21552,-24.72244 0,6.45886 4.46967,0 c 2.48577,0 3.16733,-1.694 3.15575,-3.1912 -0.0121,-1.49721 -0.95022,-3.27586 -3.06001,-3.27393 l -4.56541,0.007 z m 0,19.53022 5.22574,0.007 c 2.7448,0.002 3.83393,-2.18962 3.83731,-4.19473 0.003,-2.00439 -1.15184,-3.77846 -3.93233,-3.77846 l -5.13072,0 0,7.96716 z"
         id="path928"
         style="fill:#1f1917;fill-opacity:1;fill-rule:nonzero;stroke:none" />
      <path
         d="m 528.89677,255.52323 0,5.12734 7.56174,0 -0.003,24.86256 0.39528,0 5.68711,0 0.39577,0 -0.003,-24.86256 7.56103,0 0,-5.12734 -21.59491,0 z"
         id="path930"
         style="fill:#1f1917;fill-opacity:1;fill-rule:nonzero;stroke:none" />
      <path
         d="m 578.59415,255.52323 0,5.12734 7.56175,0 -0.003,24.86256 0.39504,0 5.68735,0 0.39576,0 -0.003,-24.86256 7.56102,0 0,-5.12734 -21.5949,0 z"
         id="path932"
         style="fill:#1f1917;fill-opacity:1;fill-rule:nonzero;stroke:none" />
      <path
         d="m 524.3861,285.44078 0,-29.91828 -6.09324,0 -12.32662,20.40134 0,-20.40134 -6.03319,0 0,29.91828 6.03319,0 0.0601,0 12.26655,-20.30414 0,20.30414 6.09325,0 z"
         id="path934"
         style="fill:#1f1917;fill-opacity:1;fill-rule:nonzero;stroke:none" />
      <path
         d="m 469.38796,275.50806 0,-10.32705 c 0,-6.49938 -3.47217,-10.20476 -9.91077,-10.20476 -2.42959,0 -6.61225,0.97217 -8.31301,2.3688 -0.55035,-0.92635 -1.10892,-1.89297 -2.36398,-2.35433 l -3.83659,3.53632 c 1.45741,0.97217 1.50396,2.89191 1.50396,3.73819 l 0,32.81284 6.21552,0 0,-10.45776 c 1.88284,0.9208 4.84975,1.28521 6.30813,1.28521 5.83133,0 10.39674,-3.65474 10.39674,-10.39746 z m -6.27581,0.64948 c 0,2.60877 -2.60202,4.19207 -4.97155,4.19207 -1.94361,0 -4.24248,-0.7896 -5.45751,-1.63998 l 0,-15.57401 c 0,-0.12179 0,-0.24286 0,-0.54626 1.39688,-1.39808 4.18195,-2.18696 5.82192,-2.18696 2.36953,0 4.60714,1.70365 4.60714,4.31243 l 0,11.44271 z"
         id="path936"
         style="fill:#1f1917;fill-opacity:1;fill-rule:nonzero;stroke:none" />
      <path
         d="m 495.96454,282.00816 -2.55065,-4.51404 c -3.52354,2.49036 -5.65045,3.21918 -7.41077,3.21918 -2.49036,0 -4.97203,-1.27556 -4.97203,-3.88723 l 0,-11.62528 c 0,-2.6722 2.48095,-4.55576 5.33644,-4.55576 1.82183,0 4.31242,1.09323 6.13497,3.03685 l 3.21918,-4.08958 c -2.18696,-2.67244 -5.28507,-4.61605 -10.0837,-4.61605 -6.13545,0 -10.88271,3.76688 -10.88271,10.26554 l 0,11.23771 c 0,6.37783 4.93031,9.36525 11.0045,9.36525 5.04053,0 8.44372,-2.37918 10.20477,-3.83659"
         id="path938"
         style="fill:#1f1917;fill-opacity:1;fill-rule:nonzero;stroke:none" />
      <path
         d="m 576.15637,281.88589 -2.6218,-4.69541 c -2.97656,2.42958 -5.88222,3.21942 -8.31251,3.21942 -2.97657,0 -5.27567,-1.64022 -5.27567,-4.86012 l 0,-2.77566 15.55013,0 0,-7.28947 c 0,-7.59262 -4.80731,-10.5084 -10.57786,-10.5084 -6.62118,0 -11.24737,3.40175 -11.24737,10.8733 l 0,9.96214 c 0,6.68123 4.38285,10.03306 11.06553,10.03306 4.92017,0 7.896,-1.59006 11.41955,-3.95886 z m -6.93494,-17.96067 0,3.72179 -9.27504,0 0,-3.2966 c 0,-2.67316 2.2991,-4.19135 4.97227,-4.19135 1.63998,0 4.30277,1.09637 4.30277,3.76616"
         id="path940"
         style="fill:#1f1917;fill-opacity:1;fill-rule:nonzero;stroke:none" />
      <path
         d="m 441.3436,281.88589 -2.62179,-4.69541 c -2.97656,2.42958 -5.88271,3.21942 -8.31229,3.21942 -2.97656,0 -5.27566,-1.64022 -5.27566,-4.86012 l 0,-2.77566 15.55013,0 0,-7.28947 c 0,-7.59262 -4.80754,-10.5084 -10.5781,-10.5084 -6.62093,0 -11.24712,3.40175 -11.24712,10.8733 l 0,9.96214 c 0,6.68123 4.38284,10.03306 11.06455,10.03306 4.9209,0 7.89674,-1.59006 11.42028,-3.95886 z m -6.93494,-17.96067 0,3.72179 -9.2748,0 0,-3.2966 c 0,-2.67316 2.2991,-4.19135 4.97203,-4.19135 1.64022,0 4.30277,1.09637 4.30277,3.76616"
         id="path942"
         style="fill:#1f1917;fill-opacity:1;fill-rule:nonzero;stroke:none" />
      <path
         d="m 313.13078,319.49277 -1.45331,2.61649 -5.16762,8.75315 -2.29356,0 0,-15.50359 2.29356,0 0,11.36891 0.16135,0.0651 1.61465,-2.84271 5.00628,-8.59131 2.26147,0 0,15.50358 -2.26147,0 0,-11.36963 -0.16135,0 z m 7.78459,11.36964 -2.29355,0 0,-15.50359 3.16539,0 3.35931,7.65484 0.58171,1.19501 0.51611,-1.22709 3.32747,-7.62276 3.13308,0 0,15.50359 -2.29356,0 0,-11.88647 -0.29061,0.54915 -3.64992,7.78459 -1.58257,0 -3.68224,-7.78459 -0.29062,-0.54915 0,11.88647 z m 17.18337,-7.20265 c 0,0.64587 0.0328,1.29752 0.0972,1.95447 0.0641,0.65624 0.23659,1.24832 0.51683,1.776 0.28025,0.52793 0.68903,0.95843 1.22709,1.29221 0.53879,0.33354 1.29197,0.50043 2.26076,0.50043 0.66806,0 1.36794,-0.0596 2.10014,-0.17774 0.73147,-0.11842 1.50757,-0.33909 2.32588,-0.66178 l 0.71025,1.80808 c -0.68928,0.32341 -1.46995,0.59835 -2.34155,0.82384 -0.87232,0.22623 -1.83557,0.33909 -2.89119,0.33909 -1.37806,0 -2.50338,-0.20379 -3.3757,-0.6133 -0.8716,-0.40951 -1.56088,-0.9741 -2.06662,-1.69593 -0.50598,-0.72135 -0.85037,-1.57727 -1.03366,-2.56777 -0.1833,-0.99074 -0.27494,-2.05649 -0.27494,-3.19748 0,-0.68903 0.0651,-1.51288 0.19414,-2.4713 0.12927,-0.95794 0.40348,-1.8732 0.82385,-2.7448 0.41988,-0.87232 1.02764,-1.61562 1.82472,-2.2294 0.79708,-0.61331 1.87319,-0.92032 3.23003,-0.92032 1.44271,0 2.57333,0.24214 3.39162,0.7269 0.8183,0.48451 1.43161,1.12989 1.84112,1.93806 0.40879,0.80745 0.6625,1.74393 0.75873,2.80967 0.0972,1.06599 0.14567,2.16936 0.14567,3.31107 l -9.46436,0 z m 3.35954,-6.68605 c -0.58195,0 -1.08238,0.14543 -1.50203,0.43605 -0.41964,0.29061 -0.76982,0.66178 -1.05007,1.11446 -0.27951,0.45172 -0.48403,0.94733 -0.6133,1.48538 -0.12903,0.53806 -0.19414,1.06599 -0.19414,1.58283 l 6.75092,0 c 0,-0.66733 -0.0485,-1.28136 -0.14543,-1.84112 -0.0965,-0.56001 -0.27421,-1.04452 -0.53275,-1.45355 -0.2583,-0.40952 -0.60824,-0.73221 -1.05006,-0.96856 -0.44087,-0.23731 -0.99533,-0.35549 -1.66314,-0.35549 z m 17.50654,6.87947 -6.68654,0 0,7.00923 -2.45442,0 0,-15.50359 2.45442,0 0,6.42775 6.68654,0 0,-6.42775 2.48722,0 0,15.50359 -2.48722,0 0,-7.00923 z m 14.30857,-4.36041 -1.45331,2.61649 -5.16835,8.75315 -2.29284,0 0,-15.50359 2.29284,0 0,11.36891 0.16135,0.0651 1.61465,-2.84271 5.007,-8.59131 2.261,0 0,15.50358 -2.261,0 0,-11.36963 -0.16134,0 z m 21.73792,-2.03454 -6.23409,0 0,13.40418 -2.5193,0 0,-15.50359 11.27244,0 0,15.50359 -2.51905,0 0,-13.40418 z m 8.04217,6.20153 c 0,0.64587 0.0324,1.29752 0.0972,1.95447 0.0641,0.65624 0.23659,1.24832 0.51683,1.776 0.27952,0.52793 0.68903,0.95843 1.22709,1.29221 0.53878,0.33354 1.2922,0.50043 2.26076,0.50043 0.66804,0 1.36745,-0.0596 2.10014,-0.17774 0.73147,-0.11842 1.50685,-0.33909 2.32515,-0.66178 l 0.71026,1.80808 c -0.68832,0.32341 -1.469,0.59835 -2.34132,0.82384 -0.87184,0.22623 -1.83581,0.33909 -2.89046,0.33909 -1.3783,0 -2.50362,-0.20379 -3.37594,-0.6133 -0.87161,-0.40951 -1.56064,-0.9741 -2.06662,-1.69593 -0.50646,-0.72135 -0.8511,-1.57727 -1.03367,-2.56777 -0.18329,-0.99074 -0.27493,-2.05649 -0.27493,-3.19748 0,-0.68903 0.0644,-1.51288 0.19438,-2.4713 0.12903,-0.95794 0.40324,-1.8732 0.8236,-2.7448 0.41989,-0.87232 1.02765,-1.61562 1.82473,-2.2294 0.79635,-0.61331 1.87319,-0.92032 3.22955,-0.92032 1.44317,0 2.5738,0.24214 3.3921,0.7269 0.81782,0.48451 1.4316,1.12989 1.84112,1.93806 0.40879,0.80745 0.66178,1.74393 0.75873,2.80967 0.0965,1.06599 0.14495,2.16936 0.14495,3.31107 l -9.46364,0 z m 3.35954,-6.68605 c -0.58172,0 -1.08215,0.14543 -1.50203,0.43605 -0.41964,0.29061 -0.76982,0.66178 -1.05007,1.11446 -0.27952,0.45172 -0.48476,0.94733 -0.6133,1.48538 -0.12903,0.53806 -0.19414,1.06599 -0.19414,1.58283 l 6.75043,0 c 0,-0.66733 -0.048,-1.28136 -0.14494,-1.84112 -0.0972,-0.56001 -0.27494,-1.04452 -0.53251,-1.45355 -0.25926,-0.40952 -0.60848,-0.73221 -1.05007,-0.96856 -0.44183,-0.23731 -0.99629,-0.35549 -1.66337,-0.35549 z m 10.56146,-1.61489 0.61403,1.61489 1.58257,-1.00159 c 1.0549,-0.68903 1.92722,-1.03367 2.61626,-1.03367 1.05489,0 1.91636,0.23732 2.58417,0.71098 0.66732,0.47367 1.19501,1.09782 1.58258,1.87319 0.3878,0.77514 0.65165,1.66338 0.79105,2.66473 0.14012,1.00087 0.21054,2.01886 0.21054,3.05253 0,0.8827 -0.0704,1.80349 -0.21054,2.76119 -0.1394,0.95843 -0.41434,1.83075 -0.82313,2.61698 -0.40951,0.7855 -0.97482,1.43715 -1.69617,1.95398 -0.72111,0.51684 -1.66314,0.77513 -2.82607,0.77513 -0.49488,0 -1.08697,-0.11335 -1.776,-0.33909 -0.68928,-0.22622 -1.35708,-0.61933 -2.00319,-1.17933 l 0,7.46142 -2.51929,0 0,-21.93134 1.87319,0 z m 0.6461,12.49977 c 0.49562,0.32269 1.06575,0.64056 1.71185,0.95288 0.64611,0.31183 1.32501,0.46836 2.03527,0.46836 0.71025,0 1.26471,-0.22068 1.66313,-0.66178 0.39865,-0.44159 0.68927,-0.97483 0.87232,-1.59898 0.18257,-0.62488 0.29061,-1.28112 0.32269,-1.97015 0.0324,-0.68927 0.0487,-1.28135 0.0487,-1.77696 0,-0.9905 -0.0432,-1.85728 -0.12927,-2.59985 -0.0861,-0.74306 -0.24214,-1.36167 -0.46835,-1.85752 -0.22623,-0.49489 -0.53252,-0.87232 -0.92081,-1.1299 -0.38757,-0.25926 -0.89355,-0.38829 -1.5177,-0.38829 -0.32341,0 -0.65696,0.054 -1.0016,0.16183 -0.34439,0.10732 -0.67263,0.24769 -0.98495,0.41988 -0.31256,0.1722 -0.60848,0.36032 -0.88824,0.56532 -0.28025,0.20451 -0.52769,0.40348 -0.74306,0.59762 l 0,8.81754 z m 23.74015,-1.51843 c 0,1.29221 -0.43074,2.36881 -1.29221,3.23028 -0.86123,0.86147 -2.08832,1.29197 -3.68199,1.29197 l -6.49191,0 0,-15.50359 6.20129,0 c 1.35708,0 2.47082,0.31738 3.34314,0.95239 0.87233,0.63573 1.30837,1.61007 1.30837,2.92326 0,0.68904 -0.16665,1.35709 -0.50115,2.00247 -0.33355,0.64586 -0.88801,1.11976 -1.66314,1.42195 0.9905,0.23635 1.70147,0.66709 2.13149,1.29125 0.43145,0.62488 0.64611,1.42123 0.64611,2.39002 z m -2.45419,-0.0321 c 0,-0.9044 -0.26408,-1.56088 -0.79177,-1.97039 -0.52769,-0.40879 -1.25386,-0.61379 -2.18021,-0.61379 l -3.64992,0 0,5.007 3.87638,0 c 0.3227,0 0.64587,-0.0376 0.96856,-0.11287 0.32341,-0.0757 0.61403,-0.21054 0.87233,-0.40396 0.25853,-0.19415 0.4739,-0.44714 0.64609,-0.75897 0.1722,-0.31232 0.25854,-0.69458 0.25854,-1.14702 z m -0.6461,-6.91227 c 0,-0.38709 -0.0808,-0.70495 -0.24214,-0.9524 -0.16182,-0.24816 -0.3608,-0.44159 -0.59811,-0.58171 -0.23659,-0.14012 -0.48403,-0.23659 -0.74233,-0.29061 -0.25854,-0.054 -0.48476,-0.0806 -0.67818,-0.0806 l -3.71504,0 0,4.19882 3.55297,0 c 1.61538,0 2.42283,-0.76428 2.42283,-2.29356 z m 11.62793,11.91854 c -1.11977,0 -2.07264,-0.20909 -2.85815,-0.6297 -0.78621,-0.41964 -1.42677,-0.99605 -1.92238,-1.72753 -0.49513,-0.7322 -0.85593,-1.59343 -1.08167,-2.58417 -0.22622,-0.9905 -0.33909,-2.05624 -0.33909,-3.19796 0,-1.07684 0.10732,-2.11533 0.3227,-3.11668 0.21536,-1.00159 0.57567,-1.88429 1.08166,-2.64857 0.50646,-0.76427 1.1627,-1.37276 1.97014,-1.8252 0.80818,-0.45195 1.79313,-0.67818 2.95606,-0.67818 1.14099,0 2.11581,0.20983 2.92326,0.63019 0.80745,0.41988 1.46368,0.99556 1.97015,1.72753 0.50598,0.7322 0.87184,1.59367 1.09806,2.58417 0.22623,0.99074 0.33909,2.04563 0.33909,3.1654 0,1.11977 -0.11286,2.17996 -0.33909,3.18156 -0.22622,1.00087 -0.59763,1.88428 -1.11446,2.64856 -0.51684,0.76428 -1.18392,1.36721 -2.00223,1.8088 -0.81829,0.44159 -1.81989,0.66178 -3.00405,0.66178 z m 0.12927,-14.34065 c -0.7322,0 -1.32959,0.1558 -1.79312,0.46812 -0.46282,0.31256 -0.82868,0.73775 -1.09806,1.27581 -0.26867,0.53878 -0.45727,1.16824 -0.56532,1.88959 -0.10732,0.72183 -0.16134,1.48081 -0.16134,2.27716 0,0.92635 0.0541,1.776 0.16134,2.5521 0.10805,0.7744 0.29665,1.448 0.56532,2.01862 0.26938,0.57037 0.63524,1.01196 1.09806,1.32428 0.46353,0.31184 1.06092,0.46836 1.79312,0.46836 0.71026,0 1.29751,-0.15122 1.76032,-0.45268 0.46282,-0.30147 0.82868,-0.72666 1.09807,-1.27557 0.26939,-0.54891 0.46354,-1.21141 0.58171,-1.98679 0.11817,-0.77513 0.17774,-1.6255 0.17774,-2.55113 0,-0.79732 -0.054,-1.55605 -0.16206,-2.2774 -0.10732,-0.72111 -0.30147,-1.35636 -0.581,-1.90599 -0.28023,-0.54891 -0.65164,-0.98978 -1.11446,-1.32404 -0.46281,-0.33379 -1.05006,-0.50044 -1.76032,-0.50044 z m 11.56306,13.88869 -2.48698,0 0,-15.50358 9.49644,0 0,2.13173 -7.00946,0 0,13.37185 z m 14.56711,0.45196 c -1.11905,0 -2.07216,-0.20909 -2.85839,-0.6297 -0.78623,-0.41964 -1.42678,-0.99605 -1.92167,-1.72753 -0.49489,-0.7322 -0.85592,-1.59343 -1.08214,-2.58417 -0.22574,-0.9905 -0.33909,-2.05624 -0.33909,-3.19796 0,-1.07684 0.10805,-2.11533 0.32341,-3.11668 0.21537,-1.00159 0.57545,-1.88429 1.08143,-2.64857 0.50669,-0.76427 1.16293,-1.37276 1.97014,-1.8252 0.80817,-0.45195 1.79336,-0.67818 2.95606,-0.67818 1.14123,0 2.11533,0.20983 2.92278,0.63019 0.80793,0.41988 1.46416,0.99556 1.97015,1.72753 0.5067,0.7322 0.87232,1.59367 1.09854,2.58417 0.22646,0.99074 0.33909,2.04563 0.33909,3.1654 0,1.11977 -0.11263,2.17996 -0.33909,3.18156 -0.22622,1.00087 -0.59738,1.88428 -1.11422,2.64856 -0.51684,0.76428 -1.18489,1.36721 -2.00319,1.8088 -0.81757,0.44159 -1.81916,0.66178 -3.00381,0.66178 z m 0.12975,-14.34065 c -0.73196,0 -1.32959,0.1558 -1.79313,0.46812 -0.46281,0.31256 -0.82842,0.73775 -1.09782,1.27581 -0.26939,0.53878 -0.4575,1.16824 -0.5653,1.88959 -0.10756,0.72183 -0.16135,1.48081 -0.16135,2.27716 0,0.92635 0.0538,1.776 0.16135,2.5521 0.1078,0.7744 0.29591,1.448 0.5653,2.01862 0.2694,0.57037 0.63501,1.01196 1.09782,1.32428 0.46354,0.31184 1.06117,0.46836 1.79313,0.46836 0.71049,0 1.29703,-0.15122 1.76057,-0.45268 0.46281,-0.30147 0.82842,-0.72666 1.09782,-1.27557 0.26939,-0.54891 0.4628,-1.21141 0.58123,-1.98679 0.1189,-0.77513 0.17774,-1.6255 0.17774,-2.55113 0,-0.79732 -0.0541,-1.55605 -0.16135,-2.2774 -0.10804,-0.72111 -0.30146,-1.35636 -0.58195,-1.90599 -0.27952,-0.54891 -0.65068,-0.98978 -1.11349,-1.32404 -0.46354,-0.33379 -1.05008,-0.50044 -1.76057,-0.50044 z m 28.03616,-5.8786 -8.17143,0 0,19.76729 -2.71344,0 0,-22.12524 13.59832,0 0,22.12524 -2.71345,0 0,-19.76729 z m 8.01033,4.26371 0.61379,1.61489 1.58282,-1.00159 c 1.05465,-0.68903 1.92697,-1.03367 2.61625,-1.03367 1.05489,0 1.91612,0.23731 2.58345,0.71098 0.66781,0.47366 1.19574,1.09782 1.5833,1.87319 0.38684,0.77513 0.65093,1.66338 0.79105,2.66473 0.14012,1.00087 0.20982,2.01886 0.20982,3.05253 0,0.88269 -0.0697,1.80349 -0.20982,2.76119 -0.14012,0.95843 -0.41434,1.83075 -0.82385,2.61697 -0.40879,0.78551 -0.97434,1.43716 -1.69545,1.95399 -0.72183,0.51684 -1.66337,0.77513 -2.82607,0.77513 -0.49585,0 -1.08768,-0.11335 -1.77696,-0.33909 -0.68903,-0.22622 -1.35636,-0.61933 -2.00222,-1.17934 l 0,7.46143 -2.5193,0 0,-21.93134 1.87319,0 z m 0.64611,12.49977 c 0.49488,0.32269 1.06575,0.64056 1.71184,0.95288 0.64586,0.31183 1.32405,0.46835 2.0343,0.46835 0.71098,0 1.26544,-0.22067 1.6641,-0.66178 0.39794,-0.44158 0.68903,-0.97482 0.8716,-1.59897 0.18329,-0.62488 0.29062,-1.28112 0.32341,-1.97015 0.0321,-0.68927 0.0485,-1.28135 0.0485,-1.77697 0,-0.99049 -0.0429,-1.85727 -0.12975,-2.59984 -0.0856,-0.74306 -0.24214,-1.36167 -0.46836,-1.85752 -0.22574,-0.49489 -0.53251,-0.87232 -0.92032,-1.1299 -0.38757,-0.25926 -0.89331,-0.38829 -1.51819,-0.38829 -0.32268,0 -0.65647,0.054 -1.00087,0.16183 -0.34463,0.10732 -0.67335,0.24769 -0.98519,0.41988 -0.31231,0.1722 -0.60848,0.36032 -0.88872,0.56531 -0.27953,0.20452 -0.52697,0.40349 -0.74233,0.59763 l 0,8.81754 z m 14.34064,-4.19883 c 0,0.64586 0.0328,1.29751 0.097,1.95447 0.0644,0.65623 0.23659,1.24831 0.51683,1.776 0.28049,0.52793 0.68928,0.95842 1.22734,1.29221 0.53853,0.33354 1.29196,0.50043 2.26075,0.50043 0.66781,0 1.36794,-0.0596 2.10014,-0.17774 0.73148,-0.11842 1.50734,-0.33909 2.32564,-0.66178 l 0.71049,1.80807 c -0.68927,0.32342 -1.46995,0.59836 -2.34155,0.82385 -0.87232,0.22622 -1.83629,0.33909 -2.89119,0.33909 -1.37806,0 -2.50338,-0.20379 -3.3757,-0.6133 -0.87184,-0.40951 -1.56087,-0.9741 -2.06661,-1.69593 -0.50598,-0.72135 -0.85062,-1.57728 -1.03367,-2.56778 -0.18329,-0.99073 -0.27494,-2.05648 -0.27494,-3.19747 0,-0.68903 0.0649,-1.51288 0.19415,-2.47131 0.12927,-0.95794 0.40348,-1.87319 0.82384,-2.74479 0.41965,-0.87232 1.0274,-1.61562 1.82448,-2.2294 0.79732,-0.61331 1.8732,-0.92032 3.23028,-0.92032 1.44245,0 2.57331,0.24214 3.39161,0.72689 0.81831,0.48452 1.43161,1.1299 1.84113,1.93807 0.40878,0.80745 0.66153,1.74393 0.75873,2.80967 0.0972,1.06599 0.14566,2.16936 0.14566,3.31107 l -9.46437,0 z m 3.35931,-6.68605 c -0.58171,0 -1.08215,0.14543 -1.50179,0.43604 -0.41988,0.29062 -0.76982,0.66178 -1.05006,1.11447 -0.27977,0.45171 -0.48404,0.94732 -0.61331,1.48538 -0.12927,0.53806 -0.19415,1.06599 -0.19415,1.58282 l 6.75093,0 c 0,-0.66732 -0.0485,-1.28135 -0.14567,-1.84111 -0.0962,-0.56001 -0.27397,-1.04453 -0.5325,-1.45356 -0.2583,-0.40951 -0.60848,-0.7322 -1.05008,-0.96855 -0.44086,-0.23731 -0.99604,-0.35549 -1.66337,-0.35549 z m 12.24147,14.24418 c -1.12,0 -2.0941,-0.13457 -2.92325,-0.40396 -0.82868,-0.26939 -1.56643,-0.61861 -2.21229,-1.04935 l 0.93648,-1.61538 c 0.56,0.28025 1.19018,0.51129 1.88959,0.69458 0.70013,0.18305 1.39471,0.2747 2.08374,0.2747 1.03367,0 1.87874,-0.22067 2.5357,-0.6625 0.65623,-0.44159 0.98519,-1.13617 0.98519,-2.08302 0,-0.2583 -0.0439,-0.54409 -0.12927,-0.85592 -0.0868,-0.31232 -0.24262,-0.60294 -0.46908,-0.87233 -0.22549,-0.26939 -0.54891,-0.49488 -0.96855,-0.67818 -0.41989,-0.18305 -0.96398,-0.27469 -1.6313,-0.27469 l -2.16429,0 0,-1.93807 2.35843,0 c 1.80833,0 2.71272,-0.85062 2.71272,-2.55137 0,-0.25854 -0.0376,-0.52239 -0.11287,-0.79178 -0.0753,-0.26866 -0.22622,-0.51128 -0.45244,-0.72593 -0.22573,-0.21609 -0.53251,-0.39311 -0.92032,-0.53323 -0.38756,-0.14012 -0.9044,-0.21006 -1.5505,-0.21006 -0.21537,0 -0.47922,0.0217 -0.79081,0.0644 -0.31256,0.0432 -0.63597,0.11335 -0.96951,0.20982 -0.33355,0.0972 -0.67264,0.20982 -1.01727,0.33909 -0.34439,0.12999 -0.65696,0.26939 -0.93648,0.42037 l -0.90464,-1.67953 c 1.03318,-0.56001 1.97593,-0.93672 2.82631,-1.13087 0.85038,-0.19342 1.68435,-0.29061 2.50338,-0.29061 0.90392,0 1.6682,0.11287 2.29308,0.33909 0.62416,0.22646 1.13616,0.53275 1.5341,0.92104 0.39842,0.38757 0.68349,0.83952 0.85592,1.35636 0.1722,0.51683 0.2583,1.06574 0.2583,1.64745 0,0.90392 -0.20982,1.63588 -0.62971,2.19589 -0.41963,0.56 -0.97482,0.98037 -1.66312,1.25989 0.96855,0.30146 1.64215,0.77537 2.01814,1.42147 0.37719,0.64514 0.5653,1.41014 0.5653,2.29284 0,0.8183 -0.15049,1.5341 -0.45195,2.14789 -0.30147,0.61402 -0.72112,1.12531 -1.25989,1.5341 -0.53806,0.40951 -1.16294,0.71653 -1.8732,0.92104 -0.71026,0.20428 -1.48562,0.30677 -2.32564,0.30677 z m 17.79716,-11.72512 -1.45356,2.61649 -5.16762,8.75314 -2.29356,0 0,-15.50358 2.29356,0 0,11.36891 0.16135,0.0651 1.6149,-2.84271 5.00627,-8.59132 2.26148,0 0,15.50359 -2.26148,0 0,-11.36963 -0.16134,0 z m 10.11022,-2.00222 -0.25829,4.39225 c -0.0437,0.84024 -0.0972,1.59922 -0.16208,2.27716 -0.0641,0.67817 -0.1558,1.2922 -0.27421,1.84111 -0.1189,0.54964 -0.2583,1.05007 -0.42036,1.50203 -0.16135,0.45244 -0.36031,0.86147 -0.59666,1.22781 l 7.00849,0 0,-11.24036 -5.29689,0 z m -3.45625,18.02336 -2.32588,0 -0.0641,-6.75092 1.38843,-0.0649 c 0.28024,-0.27976 0.52769,-0.5969 0.74306,-0.95239 0.21537,-0.35549 0.40396,-0.78622 0.56531,-1.29196 0.16207,-0.50599 0.29062,-1.11977 0.38781,-1.84112 0.0969,-0.72135 0.17774,-1.59898 0.24262,-2.63265 l 0.35476,-6.62117 9.91633,0 0,13.40417 1.58258,0.0321 -0.0644,6.71885 -2.26149,0 -0.0641,-4.65151 -10.33597,0 -0.0649,4.65151 z m 17.15104,-11.85415 c 0,0.64586 0.0328,1.29751 0.0972,1.95447 0.0649,0.65623 0.23707,1.24831 0.51683,1.776 0.28025,0.52793 0.68904,0.95842 1.22709,1.29221 0.53879,0.33354 1.29197,0.50043 2.26149,0.50043 0.66709,0 1.36721,-0.0596 2.09941,-0.17774 0.73221,-0.11842 1.50733,-0.33909 2.32564,-0.66178 l 0.71049,1.80807 c -0.68927,0.32342 -1.46995,0.59836 -2.34155,0.82385 -0.87232,0.22622 -1.83556,0.33909 -2.89118,0.33909 -1.37807,0 -2.50338,-0.20379 -3.37498,-0.6133 -0.87233,-0.40951 -1.5616,-0.9741 -2.06734,-1.69593 -0.50598,-0.72135 -0.85062,-1.57728 -1.03367,-2.56778 -0.1833,-0.99073 -0.27422,-2.05648 -0.27422,-3.19747 0,-0.68903 0.0641,-1.51288 0.19343,-2.47131 0.12927,-0.95794 0.40348,-1.87319 0.82385,-2.74479 0.41964,-0.87232 1.02812,-1.61562 1.82471,-2.2294 0.79708,-0.61331 1.87319,-0.92032 3.23003,-0.92032 1.44247,0 2.57333,0.24214 3.39162,0.72689 0.81831,0.48452 1.43161,1.1299 1.84113,1.93807 0.40878,0.80745 0.66225,1.74393 0.75873,2.80967 0.0972,1.06599 0.14566,2.16936 0.14566,3.31107 l -9.46436,0 z m 3.35954,-6.68605 c -0.58195,0 -1.08238,0.14543 -1.50203,0.43604 -0.41987,0.29062 -0.76982,0.66178 -1.05006,1.11447 -0.27976,0.45171 -0.48403,0.94732 -0.6133,1.48538 -0.12927,0.53806 -0.19415,1.06599 -0.19415,1.58282 l 6.75092,0 c 0,-0.66732 -0.0485,-1.28135 -0.14567,-1.84111 -0.0962,-0.56001 -0.27397,-1.04453 -0.53251,-1.45356 -0.25829,-0.40951 -0.60848,-0.7322 -1.05006,-0.96855 -0.44087,-0.23731 -0.99533,-0.35549 -1.66314,-0.35549 z m 17.50654,6.87947 -6.68677,0 0,7.00922 -2.45419,0 0,-15.50358 2.45419,0 0,6.42775 6.68677,0 0,-6.42775 2.48722,0 0,15.50358 -2.48722,0 0,-7.00922 z m 11.04622,7.00922 -2.48699,0 0,-13.40417 -4.19882,0 0,-2.09941 11.01415,0 0,2.09941 -4.32834,0 0,13.40417 z m 17.95873,-0.16134 c -0.34464,0.12927 -0.71098,0.24214 -1.09806,0.33909 -0.38829,0.0965 -0.765,0.14494 -1.13062,0.14494 -0.45269,0 -0.80263,-0.0798 -1.05007,-0.24189 -0.24744,-0.16135 -0.44641,-0.52239 -0.59763,-1.08215 l -0.16134,-0.6133 -1.67954,1.09782 c -0.51682,0.34464 -0.95866,0.58195 -1.32428,0.71098 -0.36586,0.12854 -0.71025,0.19366 -1.03367,0.19366 -1.01172,0 -1.80904,-0.16134 -2.39002,-0.48403 -0.58123,-0.32342 -1.02282,-0.71653 -1.32429,-1.17934 -0.30146,-0.46354 -0.49561,-0.95842 -0.5817,-1.48563 -0.0861,-0.52769 -0.12855,-0.99605 -0.12855,-1.40556 0,-0.96879 0.21464,-1.7924 0.64538,-2.47058 0.43073,-0.67818 1.02281,-1.23264 1.77672,-1.66337 0.75342,-0.43074 1.64697,-0.7486 2.68064,-0.95288 1.03368,-0.20451 2.15344,-0.3181 3.35931,-0.33909 l 0,-1.19501 c 0,-0.92635 -0.19897,-1.64215 -0.59739,-2.14813 -0.39866,-0.50647 -1.15739,-0.75873 -2.27716,-0.75873 -0.7966,0 -1.5288,0.0854 -2.1966,0.25757 -0.66733,0.17244 -1.28112,0.35549 -1.84113,0.54963 l -0.58098,-1.74464 c 0.7322,-0.40879 1.52301,-0.73196 2.37363,-0.96856 0.85037,-0.23659 1.71715,-0.35549 2.60057,-0.35549 1.85197,0 3.15431,0.41482 3.90822,1.24349 0.75342,0.82916 1.13014,1.93253 1.13014,3.31083 l 0,9.62571 1.51842,0 0,1.61466 z m -4.03772,-7.59045 c -0.53806,0 -1.15185,0.0376 -1.84088,0.11287 -0.68928,0.076 -1.34068,0.23731 -1.95471,0.48476 -0.61307,0.24744 -1.1299,0.59208 -1.54978,1.03367 -0.42037,0.44086 -0.6297,1.03897 -0.6297,1.7924 0,0.8183 0.15604,1.448 0.46835,1.88959 0.31185,0.44159 0.87715,0.6625 1.69546,0.6625 0.25853,0 0.5653,-0.0596 0.92031,-0.17774 0.35549,-0.11818 0.71628,-0.27494 1.08215,-0.46836 0.36634,-0.19414 0.71098,-0.39842 1.03366,-0.61379 0.3227,-0.21536 0.58172,-0.41988 0.77514,-0.61402 l 0,-4.10188 z m -323.4183,28.70132 0,9.3023 -2.71319,0 0,-22.12525 5.55591,0 c 0.62416,0 1.32476,0.0485 2.09941,0.14567 0.77465,0.0962 1.50734,0.34922 2.19661,0.75873 0.68831,0.40879 1.26471,1.02282 1.72752,1.84112 0.46282,0.8183 0.69458,1.9482 0.69458,3.39138 0,1.35636 -0.21609,2.47155 -0.6461,3.34315 -0.43001,0.8716 -0.98519,1.55532 -1.66338,2.05093 -0.67793,0.49489 -1.44245,0.83398 -2.29355,1.01727 -0.85038,0.18306 -1.69594,0.2747 -2.53546,0.2747 l -2.42235,0 z m 0,-10.46524 0,8.13961 2.35796,0 c 0.58123,0 1.14726,-0.0439 1.69545,-0.12927 0.54891,-0.0861 1.02885,-0.27494 1.43763,-0.56532 0.40879,-0.2906 0.73776,-0.72134 0.9852,-1.2922 0.24744,-0.57014 0.37116,-1.34045 0.37116,-2.30924 0,-0.88269 -0.12926,-1.58257 -0.38756,-2.09941 -0.25782,-0.51611 -0.58727,-0.90464 -0.98519,-1.16294 -0.39794,-0.25782 -0.83954,-0.42037 -1.32405,-0.48404 -0.48404,-0.0641 -0.95384,-0.0972 -1.40508,-0.0972 l -2.74552,0 z m 16.82788,20.2195 c -1.11904,0 -2.07217,-0.20982 -2.85814,-0.62971 -0.78551,-0.41964 -1.42679,-0.99604 -1.92192,-1.72752 -0.49488,-0.7322 -0.8564,-1.59415 -1.08214,-2.5849 -0.2255,-0.98978 -0.3391,-2.05552 -0.3391,-3.19724 0,-1.07683 0.10805,-2.11605 0.32342,-3.11668 0.21537,-1.00159 0.5764,-1.88501 1.08142,-2.64929 0.50598,-0.76356 1.16294,-1.37276 1.97039,-1.82447 0.80745,-0.45196 1.79312,-0.67819 2.95606,-0.67819 1.14099,0 2.11582,0.21056 2.92254,0.63019 0.80745,0.41916 1.46513,0.99605 1.97014,1.72752 0.50598,0.73221 0.87305,1.59368 1.09879,2.58346 0.2255,0.99074 0.33909,2.04635 0.33909,3.16612 0,1.11976 -0.11359,2.17997 -0.33909,3.18156 -0.22574,1.00087 -0.59836,1.88405 -1.11446,2.64857 -0.51683,0.76428 -1.18465,1.36793 -2.00294,1.80879 -0.81783,0.44087 -1.81918,0.66179 -3.00406,0.66179 z m 0.12999,-14.34065 c -0.7322,0 -1.33031,0.15652 -1.79312,0.46811 -0.46233,0.31184 -0.8294,0.73775 -1.09806,1.27581 -0.26867,0.53806 -0.458,1.16824 -0.56532,1.8896 -0.10732,0.7211 -0.16134,1.48008 -0.16134,2.27715 0,0.92635 0.054,1.77672 0.16134,2.5521 0.10732,0.77441 0.29665,1.44776 0.56532,2.01862 0.26866,0.56965 0.63501,1.01197 1.09806,1.32428 0.46281,0.31184 1.06092,0.46836 1.79312,0.46836 0.71026,0 1.29751,-0.15121 1.76033,-0.45268 0.46208,-0.30147 0.82915,-0.72666 1.09782,-1.27557 0.26867,-0.54891 0.46305,-1.21141 0.58122,-1.98679 0.1189,-0.77513 0.17775,-1.6255 0.17775,-2.55136 0,-0.79708 -0.0541,-1.55654 -0.16135,-2.27716 -0.10732,-0.72111 -0.30147,-1.35709 -0.5817,-1.906 -0.27904,-0.5489 -0.65093,-0.9905 -1.11374,-1.32404 -0.46354,-0.33379 -1.05007,-0.50043 -1.76033,-0.50043 z m 14.89028,14.34065 c -1.93879,0 -3.44612,-0.69459 -4.52223,-2.08302 -1.07685,-1.38843 -1.61466,-3.2679 -1.61466,-5.6367 0,-1.33514 0.15097,-2.54101 0.45172,-3.61712 0.30098,-1.07684 0.7322,-1.99209 1.29221,-2.74552 0.55927,-0.75414 1.23866,-1.33031 2.03453,-1.72824 0.79636,-0.39794 1.69063,-0.5974 2.68113,-0.5974 0.94756,0 1.83556,0.0914 2.66496,0.2747 0.82916,0.1833 1.55509,0.4575 2.17997,0.82313 l -0.61379,1.80904 c -0.51684,-0.17244 -1.13086,-0.33909 -1.84111,-0.50044 -0.71027,-0.16134 -1.45332,-0.24286 -2.22869,-0.24286 -1.35636,0 -2.34759,0.54964 -2.97174,1.6477 -0.62343,1.09782 -0.93671,2.56222 -0.93671,4.39298 0,0.73147 0.0494,1.45885 0.14567,2.1802 0.0965,0.72062 0.28578,1.36721 0.56554,1.93807 0.2788,0.57013 0.65696,1.03366 1.1299,1.38844 0.4739,0.35476 1.09854,0.53323 1.87392,0.53323 0.81758,0 1.59295,-0.0917 2.32515,-0.2747 0.73269,-0.18329 1.41014,-0.39311 2.03502,-0.62971 l 0.64611,1.8732 c -0.64611,0.34464 -1.38362,0.63042 -2.21301,0.85593 -0.82844,0.22549 -1.85679,0.33909 -3.08389,0.33909 z m 12.75807,0 c -1.93806,0 -3.4454,-0.69459 -4.52224,-2.08302 -1.07611,-1.38843 -1.61466,-3.2679 -1.61466,-5.6367 0,-1.33514 0.15098,-2.54101 0.45173,-3.61712 0.3017,-1.07684 0.73292,-1.99209 1.2922,-2.74552 0.56001,-0.75414 1.23866,-1.33031 2.03526,-1.72824 0.79636,-0.39794 1.69063,-0.5974 2.68041,-0.5974 0.94756,0 1.83629,0.0914 2.66496,0.2747 0.82916,0.1833 1.55581,0.4575 2.18069,0.82313 l -0.61378,1.80904 c -0.51684,-0.17244 -1.13159,-0.33909 -1.84185,-0.50044 -0.70953,-0.16134 -1.45331,-0.24286 -2.22796,-0.24286 -1.35708,0 -2.34758,0.54964 -2.97174,1.6477 -0.62415,1.09782 -0.93719,2.56222 -0.93719,4.39298 0,0.73147 0.0491,1.45885 0.14614,2.1802 0.0965,0.72062 0.28507,1.36721 0.56484,1.93807 0.27952,0.57013 0.65695,1.03366 1.13062,1.38844 0.47318,0.35476 1.09806,0.53323 1.87319,0.53323 0.8183,0 1.59367,-0.0917 2.32587,-0.2747 0.73196,-0.18329 1.41015,-0.39311 2.03503,-0.62971 l 0.64538,1.8732 c -0.64538,0.34464 -1.38361,0.63042 -2.21229,0.85593 -0.82843,0.22549 -1.85728,0.33909 -3.08461,0.33909 z m 15.827,-11.8216 -1.45331,2.61625 -5.16834,8.75339 -2.29307,0 0,-15.50359 2.29307,0 0,11.36891 0.16134,0.0651 1.61538,-2.84271 5.00628,-8.59132 2.26076,0 0,15.50359 -2.26076,0 0,-11.36964 -0.16135,0 z m 14.30858,0 -1.45332,2.61625 -5.16761,8.75339 -2.29356,0 0,-15.50359 2.29356,0 0,11.36891 0.16135,0.0651 1.61465,-2.84271 5.00628,-8.59132 2.26147,0 0,15.50359 -2.26147,0 0,-11.36964 -0.16135,0 z m 13.72831,-10.75561 11.30476,0 0,2.35771 -8.59132,0 0,6.94459 4.06957,0 c 0.60293,0 1.2922,0.0753 2.06733,0.22622 0.77465,0.15049 1.50757,0.45196 2.1966,0.9044 0.68904,0.45196 1.27026,1.09251 1.74393,1.92191 0.47391,0.82843 0.71026,1.92167 0.71026,3.27803 0,1.33514 -0.25275,2.42283 -0.75873,3.26235 -0.50599,0.83953 -1.11977,1.49648 -1.84112,1.97015 -0.72111,0.47366 -1.49094,0.80262 -2.30924,0.98519 -0.81829,0.18305 -1.53965,0.2747 -2.16453,0.2747 l -6.42751,0 0,-22.12525 z m 6.33056,19.83169 c 0.45245,0 0.94275,-0.0697 1.46971,-0.20982 0.52793,-0.1394 1.01172,-0.37116 1.45428,-0.69458 0.44086,-0.32269 0.8072,-0.75898 1.09782,-1.30788 0.29061,-0.54892 0.43555,-1.23264 0.43555,-2.05094 0,-0.79709 -0.13963,-1.44849 -0.41987,-1.95447 -0.27953,-0.50598 -0.65069,-0.9044 -1.1135,-1.19502 -0.46354,-0.29061 -0.98519,-0.49489 -1.56715,-0.61403 -0.58098,-0.11817 -1.16269,-0.17773 -1.74393,-0.17773 l -3.23003,0 0,8.20447 3.61712,0 z m 11.82207,2.61625 c -0.55976,0 -1.03366,-0.19897 -1.42123,-0.59739 -0.38756,-0.39794 -0.58098,-0.87715 -0.58098,-1.43715 0,-0.55976 0.19342,-1.03897 0.58098,-1.43763 0.38757,-0.39867 0.86147,-0.59739 1.42123,-0.59739 0.56001,0 1.03922,0.19872 1.43716,0.59739 0.39842,0.39866 0.59811,0.87787 0.59811,1.43763 0,0.56 -0.19969,1.03921 -0.59811,1.43715 -0.39794,0.39842 -0.87715,0.59739 -1.43716,0.59739 z m 18.83107,-10.65866 -8.49509,0 0,10.33597 -2.71321,0 0,-22.12525 2.71321,0 0,9.46365 8.49509,0 0,-9.46365 2.71247,0 0,22.12525 -2.71247,0 0,-10.33597 z m 7.94521,10.65866 c -0.56001,0 -1.03367,-0.19897 -1.42124,-0.59739 -0.3878,-0.39794 -0.58122,-0.87715 -0.58122,-1.43715 0,-0.55976 0.19342,-1.03897 0.58122,-1.43763 0.38757,-0.39867 0.86123,-0.59739 1.42124,-0.59739 0.55977,0 1.03898,0.19872 1.43763,0.59739 0.39794,0.39866 0.59763,0.87787 0.59763,1.43763 0,0.56 -0.19969,1.03921 -0.59763,1.43715 -0.39865,0.39842 -0.87786,0.59739 -1.43763,0.59739 z m 7.81666,-22.44794 11.40172,0 0,2.35771 -8.75315,0 0,7.04154 7.71948,0 0,2.32516 -7.71948,0 0,8.04312 8.75315,0 0,2.35772 -11.40172,0 0,-22.12525 z m 17.47398,8.75339 0,3.55272 c 0,1.6149 -0.0644,2.99296 -0.19366,4.13396 -0.12903,1.14171 -0.36079,2.11605 -0.69458,2.92326 -0.33354,0.80817 -0.78068,1.48635 -1.34044,2.03526 -0.56,0.54891 -1.27027,1.03922 -2.13174,1.46996 l -0.93647,-1.74465 c 0.66709,-0.49513 1.19984,-0.9852 1.59826,-1.46924 0.39866,-0.48475 0.70567,-1.03921 0.92104,-1.66409 0.21513,-0.62415 0.35477,-1.35636 0.41964,-2.19637 0.0641,-0.83952 0.0972,-1.86234 0.0972,-3.0682 l 0,-6.10434 9.65778,0 0,15.50359 -2.48722,0 0,-13.37186 -4.90981,0 z m 17.02202,11.24037 c 0.27952,0 0.58653,-0.0439 0.92008,-0.12927 0.33426,-0.0868 0.64055,-0.23177 0.92079,-0.43605 0.28025,-0.20451 0.51684,-0.46835 0.71026,-0.79177 0.19414,-0.32269 0.29061,-0.7322 0.29061,-1.22709 0,-0.45268 -0.0798,-0.82939 -0.2419,-1.13086 -0.16133,-0.30146 -0.38226,-0.54336 -0.66177,-0.72666 -0.28025,-0.18256 -0.60294,-0.31713 -0.96952,-0.40396 -0.36562,-0.0854 -0.75343,-0.12855 -1.16221,-0.12855 l -3.48857,0 0,4.97421 3.68223,0 z m -6.10507,-13.3721 2.42284,0 0,6.33056 4.00468,0 c 0.51683,0 1.06116,0.0589 1.63129,0.17702 0.57086,0.1189 1.1041,0.33981 1.59899,0.6625 0.49488,0.3227 0.90439,0.77513 1.22781,1.35636 0.32268,0.58171 0.48403,1.34599 0.48403,2.29356 0,0.86147 -0.16689,1.58812 -0.50043,2.18021 -0.33354,0.59256 -0.75391,1.0766 -1.25989,1.45331 -0.50599,0.37743 -1.0549,0.6461 -1.6477,0.80744 -0.59184,0.16135 -1.1463,0.24263 -1.66313,0.24263 l -6.29849,0 0,-15.50359 z m 16.63446,13.3721 6.55677,0 0,-13.3721 2.45491,0 0,13.3393 1.67977,0.0649 -0.0644,6.71812 -2.22916,0 -0.0644,-4.61871 -10.82072,0 0,-15.50358 2.48722,0 0,13.37209 z m 21.7384,-9.23815 -1.45356,2.61625 -5.16834,8.75339 -2.29284,0 0,-15.50359 2.29284,0 0,11.36891 0.16134,0.0651 1.6149,-2.84271 5.007,-8.59132 2.26076,0 0,15.50359 -2.26076,0 0,-11.36964 -0.16134,0 z m 14.53479,4.36042 -6.68605,0 0,7.00922 -2.45491,0 0,-15.50359 2.45491,0 0,6.42775 6.68605,0 0,-6.42775 2.48722,0 0,15.50359 -2.48722,0 0,-7.00922 z"
         id="path944"
         style="fill:#1f1917;fill-opacity:1;fill-rule:nonzero;stroke:none" />
      <path
         d="m 546.91699,360.95288 c -0.34463,0.12855 -0.71025,0.24214 -1.09806,0.33909 -0.38757,0.0965 -0.765,0.14495 -1.13062,0.14495 -0.45195,0 -0.8019,-0.0805 -1.04934,-0.2419 -0.24817,-0.16207 -0.44714,-0.52238 -0.59763,-1.08214 l -0.16207,-0.61331 -1.67905,1.09783 c -0.51684,0.34463 -0.95842,0.58194 -1.32404,0.71025 -0.36658,0.12927 -0.71098,0.19438 -1.03367,0.19438 -1.01245,0 -1.80904,-0.16134 -2.39075,-0.48476 -0.58098,-0.32268 -1.02282,-0.7158 -1.32428,-1.17861 -0.30147,-0.46354 -0.49489,-0.95843 -0.58099,-1.48635 -0.0861,-0.52696 -0.12927,-0.99532 -0.12927,-1.40483 0,-0.9688 0.21537,-1.79241 0.6461,-2.47058 0.43074,-0.67891 1.02258,-1.23264 1.776,-1.6641 0.75343,-0.43002 1.6477,-0.74788 2.68137,-0.95239 1.03367,-0.20501 2.15343,-0.31787 3.35858,-0.33886 l 0,-1.19573 c 0,-0.92563 -0.19897,-1.64143 -0.59739,-2.14813 -0.39865,-0.50574 -1.15738,-0.75874 -2.27715,-0.75874 -0.7966,0 -1.5288,0.0861 -2.19589,0.2583 -0.66804,0.17244 -1.28112,0.35549 -1.84184,0.54916 l -0.58098,-1.74417 c 0.7322,-0.40879 1.52372,-0.7322 2.37435,-0.96856 0.85038,-0.23731 1.71715,-0.35549 2.59985,-0.35549 1.85197,0 3.15503,0.4141 3.9082,1.24349 0.75415,0.82916 1.13014,1.93253 1.13014,3.31084 l 0,9.62498 1.51843,0 0,1.61538 z m -4.03772,-7.59044 c -0.53806,0 -1.15184,0.0376 -1.84088,0.11286 -0.68927,0.0753 -1.33996,0.23732 -1.95398,0.48476 -0.61379,0.24745 -1.13062,0.59184 -1.55051,1.03367 -0.41964,0.44086 -0.62946,1.03897 -0.62946,1.7924 0,0.8183 0.1558,1.44801 0.46812,1.88959 0.31256,0.44087 0.87715,0.66178 1.69545,0.66178 0.25853,0 0.56531,-0.0589 0.9208,-0.17702 0.35549,-0.1189 0.7158,-0.27494 1.08166,-0.46836 0.36634,-0.19415 0.71098,-0.39842 1.03367,-0.61451 0.32341,-0.21464 0.58171,-0.41916 0.77513,-0.6133 l 0,-4.10187 z"
         id="path946"
         style="fill:#1f1917;fill-opacity:1;fill-rule:nonzero;stroke:none" />
      <g
         id="text3486"
         style="font-size:31.45502281px;font-style:normal;font-variant:normal;font-weight:normal;font-stretch:normal;text-align:start;line-height:100%;letter-spacing:0px;word-spacing:0px;writing-mode:lr-tb;text-anchor:start;fill:#2a9533;fill-opacity:1;stroke:none;font-family:Lazurski;-inkscape-font-specification:Lazurski">
        <path
           d="m 312.73988,406.0155 c -1.48888,0 -2.7366,-0.29358 -3.74315,-0.88074 -1.00657,-0.58716 -1.81391,-1.38402 -2.42204,-2.39058 -0.60813,-1.02752 -1.03802,-2.2333 -1.28965,-3.61733 -0.25165,-1.38401 -0.37747,-2.88336 -0.37746,-4.49806 -10e-6,-1.44692 0.15727,-2.83094 0.47182,-4.15207 0.31455,-1.32109 0.81783,-2.48493 1.50984,-3.4915 0.69201,-1.02752 1.57275,-1.84535 2.64222,-2.4535 1.06947,-0.6081 2.35912,-0.91217 3.86897,-0.91219 1.30013,2e-5 2.40106,0.14681 3.30278,0.44037 0.9017,0.27263 1.70904,0.61864 2.42204,1.03801 l -1.22675,3.20842 c -0.60814,-0.25163 -1.24773,-0.44036 -1.91876,-0.56619 -0.67105,-0.14678 -1.32112,-0.22017 -1.95021,-0.22019 -1.405,2e-5 -2.42204,0.61863 -3.05114,1.85585 -0.60813,1.21627 -0.9122,2.8729 -0.91219,4.96989 -10e-6,2.47447 0.30406,4.37226 0.91219,5.69336 0.60813,1.32112 1.50984,1.98167 2.70514,1.98167 0.67103,0 1.33158,-0.0734 1.98166,-0.22019 0.65006,-0.16775 1.45741,-0.45085 2.42204,-0.84928 l 1.28966,3.27132 c -0.9227,0.6291 -1.92926,1.07995 -3.01969,1.35256 -1.09045,0.29358 -2.29622,0.44037 -3.61732,0.44037"
           id="path3079"
           style="font-weight:bold;fill:#2a9533;font-family:PF Bulletin Sans Pro;-inkscape-font-specification:PF Bulletin Sans Pro Bold" />
        <path
           d="m 329.81258,393.93678 -3.55442,0 0,11.63835 -4.62389,0 0,-15.16132 12.73929,0 0,15.16132 -4.56098,0 0,-11.63835"
           id="path3081"
           style="font-weight:bold;fill:#2a9533;font-family:PF Bulletin Sans Pro;-inkscape-font-specification:PF Bulletin Sans Pro Bold" />
        <path
           d="m 341.88099,399.25267 c 0.021,0.48232 0.0734,0.93318 0.15727,1.35257 0.10485,0.39844 0.26212,0.74444 0.47183,1.03802 0.23066,0.29358 0.53473,0.52425 0.91219,0.69201 0.37746,0.16776 0.87025,0.25164 1.47839,0.25164 0.46133,0 1.00655,-0.0315 1.63566,-0.0944 0.62909,-0.0839 1.41547,-0.29357 2.35913,-0.6291 l 0.84928,2.92532 c -0.85978,0.4194 -1.74052,0.72346 -2.64222,0.91219 -0.88075,0.2097 -1.79294,0.31455 -2.73659,0.31455 -1.48887,0 -2.70513,-0.22018 -3.64878,-0.66055 -0.94365,-0.44037 -1.68809,-1.02753 -2.2333,-1.76148 -0.52426,-0.73395 -0.89123,-1.57275 -1.10093,-2.5164 -0.18873,-0.96462 -0.2831,-1.95021 -0.2831,-2.95678 0,-0.44036 0.021,-0.94364 0.0629,-1.50984 0.0629,-0.58715 0.16776,-1.17431 0.31455,-1.76148 0.16776,-0.60812 0.39843,-1.19528 0.69202,-1.76148 0.31454,-0.58715 0.72346,-1.10091 1.22674,-1.5413 0.50328,-0.46132 1.11141,-0.8283 1.82439,-1.10092 0.73395,-0.29357 1.6042,-0.44036 2.61077,-0.44037 1.55177,1e-5 2.75755,0.29359 3.61733,0.88074 0.85976,0.5662 1.49934,1.30015 1.91875,2.20185 0.41939,0.88075 0.67103,1.87683 0.75492,2.98823 0.0839,1.09045 0.13629,2.14943 0.15728,3.17695 l -8.39849,0 m 3.90042,-2.35912 c -1e-5,-0.4823 -0.021,-0.94364 -0.0629,-1.38402 -0.0419,-0.46133 -0.13631,-0.85976 -0.28309,-1.19529 -0.1468,-0.33551 -0.34602,-0.59764 -0.59765,-0.78638 -0.25165,-0.20969 -0.58717,-0.31454 -1.00656,-0.31455 -0.37747,10e-6 -0.69202,0.10486 -0.94365,0.31455 -0.23068,0.18874 -0.42989,0.45087 -0.59765,0.78638 -0.14679,0.31456 -0.26213,0.7025 -0.346,1.16383 -0.0629,0.44038 -0.10486,0.91221 -0.12582,1.41548 l 3.96333,0"
           id="path3083"
           style="font-weight:bold;fill:#2a9533;font-family:PF Bulletin Sans Pro;-inkscape-font-specification:PF Bulletin Sans Pro Bold" />
        <path
           d="m 356.77691,402.14654 4.34079,0 c -1e-5,-1.97118 -0.0105,-3.92139 -0.0315,-5.85064 -1e-5,-1.92923 -1e-5,-3.87944 0,-5.85063 l 4.43516,0 c -1e-5,1.95022 -1e-5,3.88995 0,5.81918 0.021,1.92925 0.0314,3.86897 0.0315,5.81918 l 1.69857,0.0944 -0.0944,7.95812 -3.68023,0 -0.12582,-4.56098 -11.00926,0 0,-15.12986 4.43516,0 0,11.70127"
           id="path3085"
           style="font-weight:bold;fill:#2a9533;font-family:PF Bulletin Sans Pro;-inkscape-font-specification:PF Bulletin Sans Pro Bold" />
        <path
           d="m 377.85816,396.79918 -2.32767,4.49807 -2.2333,4.27788 -4.30934,0 0,-15.12986 4.30934,0 0,8.8074 0.15727,0.0629 1.03802,-2.07603 3.4915,-6.85719 0,0.0629 4.24643,0 0,15.12986 -4.24643,0 0,-8.77595 -0.12582,0"
           id="path3087"
           style="font-weight:bold;fill:#2a9533;font-family:PF Bulletin Sans Pro;-inkscape-font-specification:PF Bulletin Sans Pro Bold" />
        <path
           d="m 398.27395,405.3864 c -0.65009,0.16776 -1.30016,0.30407 -1.95021,0.40892 -0.62911,0.12582 -1.17433,0.18873 -1.63566,0.18873 -0.60814,0 -1.06948,-0.10485 -1.38402,-0.31455 -0.29359,-0.18873 -0.49281,-0.52425 -0.59765,-1.00656 l -0.15727,-0.6291 -1.63567,1.03801 c -0.4194,0.25164 -0.81783,0.47183 -1.19529,0.66056 -0.37746,0.18873 -0.72347,0.27261 -1.03801,0.25164 -1.00657,0 -1.80343,-0.15728 -2.39058,-0.47183 -0.5662,-0.31455 -1.00657,-0.70249 -1.32112,-1.16383 -0.29358,-0.48231 -0.48231,-0.98559 -0.56619,-1.50984 -0.0839,-0.52425 -0.12582,-0.99607 -0.12582,-1.41548 0,-1.02752 0.23067,-1.86632 0.69201,-2.5164 0.48231,-0.67103 1.10093,-1.20577 1.85585,-1.60421 0.77589,-0.39842 1.63566,-0.68151 2.57931,-0.84928 0.96462,-0.16775 1.91875,-0.2726 2.86241,-0.31455 l 0,-0.6291 c -10e-6,-0.67103 -0.17825,-1.16383 -0.53474,-1.47839 -0.33552,-0.33551 -0.90171,-0.50327 -1.69857,-0.50328 -0.60813,1e-5 -1.24772,0.0524 -1.91875,0.15728 -0.67105,0.10486 -1.31063,0.24116 -1.91876,0.40891 l -0.72347,-2.86241 c 0.98559,-0.41938 1.95021,-0.72345 2.89387,-0.91219 0.96461,-0.18872 1.78244,-0.28308 2.45349,-0.2831 1.92923,2e-5 3.4181,0.39845 4.46661,1.19529 1.06946,0.79688 1.60419,2.15993 1.60421,4.08916 l 0,7.14029 1.38402,0 0,2.92531 m -5.97646,-6.66846 c -0.31455,0.021 -0.68153,0.0629 -1.10092,0.12582 -0.39844,0.0629 -0.78638,0.17825 -1.16384,0.346 -0.35649,0.16777 -0.66056,0.39844 -0.91219,0.69202 -0.23068,0.29358 -0.34601,0.68153 -0.34601,1.16383 0,0.52426 0.0944,0.94366 0.2831,1.2582 0.18872,0.31456 0.53473,0.47183 1.03801,0.47183 0.31455,0 0.68152,-0.0944 1.10093,-0.2831 0.44036,-0.20969 0.80734,-0.41939 1.10092,-0.6291 l 0,-3.1455"
           id="path3089"
           style="font-weight:bold;fill:#2a9533;font-family:PF Bulletin Sans Pro;-inkscape-font-specification:PF Bulletin Sans Pro Bold" />
        <path
           d="m 405.70618,393.99969 0,2.67367 c -1e-5,1.42597 -0.0944,2.65272 -0.2831,3.68024 -0.16776,1.02754 -0.46134,1.92925 -0.88074,2.70513 -0.39843,0.75492 -0.92268,1.41548 -1.57275,1.98167 -0.65007,0.56619 -1.43645,1.09044 -2.35913,1.57275 l -1.91875,-2.98823 c 0.6291,-0.46134 1.13238,-0.9017 1.50984,-1.32111 0.37746,-0.41939 0.67104,-0.88073 0.88074,-1.38402 0.2097,-0.50327 0.346,-1.07995 0.40891,-1.73003 0.0629,-0.65006 0.0944,-1.44692 0.0944,-2.39058 l 0,-6.38537 11.51254,0 0,15.16132 -4.49807,0 0,-11.57544 -2.89386,0"
           id="path3091"
           style="font-weight:bold;fill:#2a9533;font-family:PF Bulletin Sans Pro;-inkscape-font-specification:PF Bulletin Sans Pro Bold" />
        <path
           d="m 424.42634,396.79918 -2.32767,4.49807 -2.23331,4.27788 -4.30934,0 0,-15.12986 4.30934,0 0,8.8074 0.15728,0.0629 1.03801,-2.07603 3.49151,-6.85719 0,0.0629 4.24643,0 0,15.12986 -4.24643,0 0,-8.77595 -0.12582,0"
           id="path3093"
           style="font-weight:bold;fill:#2a9533;font-family:PF Bulletin Sans Pro;-inkscape-font-specification:PF Bulletin Sans Pro Bold" />
        <path
           d="m 440.18678,397.33392 c 0.73394,0.31456 1.30013,0.79687 1.69857,1.44693 0.41939,0.62911 0.62909,1.32112 0.6291,2.07603 -1e-5,0.83881 -0.16777,1.57276 -0.50328,2.20185 -0.33553,0.6291 -0.79687,1.16384 -1.38402,1.60421 -0.58717,0.4194 -1.28966,0.73395 -2.10748,0.94365 -0.81784,0.2097 -1.69858,0.31455 -2.64223,0.31455 -0.33552,0 -0.73395,-0.021 -1.19529,-0.0629 -0.44037,-0.0419 -0.9122,-0.11534 -1.41547,-0.22019 -0.48232,-0.10485 -0.9856,-0.23067 -1.50984,-0.37746 -0.50329,-0.16776 -0.9856,-0.37746 -1.44694,-0.6291 0.18873,-0.48231 0.38795,-0.94365 0.59765,-1.38402 0.2097,-0.46133 0.40891,-0.93316 0.59765,-1.41547 0.60812,0.23067 1.22674,0.4194 1.85584,0.56619 0.65007,0.14679 1.28965,0.22019 1.91876,0.22018 0.94364,10e-6 1.6042,-0.16775 1.98166,-0.50328 0.37746,-0.33551 0.56619,-0.7654 0.5662,-1.28965 -10e-6,-0.4194 -0.15729,-0.79686 -0.47183,-1.13238 -0.31456,-0.35649 -0.90172,-0.53473 -1.76148,-0.53474 l -1.76148,0 0,-2.83095 1.82439,0 c 0.54521,1e-5 0.99607,-0.14678 1.35256,-0.44037 0.37746,-0.29357 0.56619,-0.68152 0.5662,-1.16384 -1e-5,-0.39842 -0.15729,-0.74442 -0.47183,-1.03801 -0.29359,-0.31454 -0.87026,-0.47182 -1.73003,-0.47183 -0.54522,10e-6 -1.14287,0.0734 -1.79293,0.22019 -0.65008,0.1468 -1.24772,0.33553 -1.79294,0.56619 -0.16776,-0.46133 -0.33552,-0.92267 -0.50328,-1.38403 -0.14679,-0.46132 -0.30407,-0.92266 -0.47182,-1.38402 1.25819,-0.5452 2.40106,-0.88072 3.42859,-1.00656 1.02753,-0.14677 1.82439,-0.22017 2.39058,-0.22018 1.78245,1e-5 3.13501,0.36699 4.0577,1.10092 0.94364,0.73397 1.41547,1.75101 1.41548,3.05114 -1e-5,0.54523 -0.15729,1.10094 -0.47183,1.66712 -0.31456,0.5662 -0.79687,1.01705 -1.44693,1.35256 l 0,0.15728"
           id="path3095"
           style="font-weight:bold;fill:#2a9533;font-family:PF Bulletin Sans Pro;-inkscape-font-specification:PF Bulletin Sans Pro Bold" />
        <path
           d="m 453.79255,396.79918 -2.32767,4.49807 -2.23331,4.27788 -4.30934,0 0,-15.12986 4.30934,0 0,8.8074 0.15728,0.0629 1.03801,-2.07603 3.49151,-6.85719 0,0.0629 4.24643,0 0,15.12986 -4.24643,0 0,-8.77595 -0.12582,0"
           id="path3097"
           style="font-weight:bold;fill:#2a9533;font-family:PF Bulletin Sans Pro;-inkscape-font-specification:PF Bulletin Sans Pro Bold" />
        <path
           d="m 465.30656,404.50566 0,7.36048 -4.59243,0 0,-21.45233 3.86897,0 0.69201,1.63566 1.44693,-1.00656 c 0.39842,-0.25162 0.78637,-0.47181 1.16384,-0.66055 0.37745,-0.20969 0.78636,-0.31454 1.22674,-0.31455 0.98558,10e-6 1.79293,0.25165 2.42204,0.75492 0.65006,0.48232 1.15334,1.11142 1.50984,1.8873 0.37745,0.7759 0.63957,1.64616 0.78638,2.61077 0.14677,0.94366 0.22017,1.87682 0.22018,2.79949 -1e-5,0.88075 -0.0944,1.79295 -0.28309,2.73659 -0.16778,0.92269 -0.46136,1.77197 -0.88074,2.54786 -0.39845,0.75492 -0.93318,1.37353 -1.60421,1.85584 -0.65008,0.48231 -1.46791,0.72347 -2.45349,0.72347 -0.37747,0 -0.88075,-0.0944 -1.50984,-0.2831 -0.60814,-0.16776 -1.25821,-0.57667 -1.95022,-1.22674 l -0.0629,0.0314 m 0.0629,-2.57931 c 0.31455,0.20971 0.65007,0.38795 1.00657,0.53474 0.35648,0.14679 0.692,0.22019 1.00656,0.22018 0.37745,1e-5 0.692,-0.12581 0.94365,-0.37746 0.25163,-0.2726 0.44036,-0.61861 0.56619,-1.03801 0.14678,-0.4194 0.24114,-0.90171 0.28309,-1.44693 0.0629,-0.56619 0.0944,-1.13238 0.0944,-1.69858 -10e-6,-1.48886 -0.1468,-2.64221 -0.44037,-3.46005 -0.29359,-0.81782 -0.79687,-1.22673 -1.50984,-1.22674 -0.29359,1e-5 -0.61863,0.0944 -0.97511,0.28309 -0.3565,0.16777 -0.68153,0.36699 -0.97511,0.59765 l 0,7.61211"
           id="path3099"
           style="font-weight:bold;fill:#2a9533;font-family:PF Bulletin Sans Pro;-inkscape-font-specification:PF Bulletin Sans Pro Bold" />
        <path
           d="m 482.6427,406.0155 c -1.27918,0 -2.34865,-0.22018 -3.20841,-0.66055 -0.85978,-0.44037 -1.55179,-1.01705 -2.07603,-1.73003 -0.50329,-0.73394 -0.87026,-1.57274 -1.10093,-2.5164 -0.2097,-0.96461 -0.31455,-1.97117 -0.31455,-3.01968 0,-0.96461 0.10485,-1.92923 0.31455,-2.89386 0.2097,-0.96461 0.57667,-1.82438 1.10093,-2.57932 0.52424,-0.77587 1.22674,-1.39449 2.10748,-1.85584 0.88074,-0.4823 1.98166,-0.72345 3.30278,-0.72347 1.30013,2e-5 2.38009,0.2202 3.23987,0.66056 0.88072,0.44038 1.57273,1.02754 2.07603,1.76148 0.52423,0.73396 0.89121,1.58325 1.10092,2.54786 0.23066,0.94366 0.34599,1.92925 0.34601,2.95677 -2e-5,1.00657 -0.10487,1.99216 -0.31455,2.95677 -0.20972,0.96463 -0.57669,1.8244 -1.10093,2.57931 -0.52426,0.75492 -1.23724,1.36305 -2.13894,1.82439 -0.88075,0.46134 -1.99216,0.69201 -3.33423,0.69201 m 0.12582,-12.80219 c -0.44038,1e-5 -0.79687,0.11535 -1.06947,0.34601 -0.27262,0.20971 -0.48232,0.51377 -0.6291,0.91219 -0.1468,0.39844 -0.25165,0.88075 -0.31455,1.44693 -0.0419,0.5662 -0.0629,1.18482 -0.0629,1.85585 -10e-6,1.6147 0.12581,2.85193 0.37746,3.71169 0.2726,0.83881 0.83879,1.25821 1.69857,1.2582 0.81782,1e-5 1.35256,-0.40891 1.60421,-1.22674 0.2726,-0.81783 0.4089,-2.04457 0.40891,-3.68024 -1e-5,-0.692 -0.0315,-1.3211 -0.0944,-1.8873 -0.0419,-0.56618 -0.13632,-1.04849 -0.2831,-1.44693 -0.1468,-0.41939 -0.3565,-0.73394 -0.6291,-0.94365 -0.25165,-0.23066 -0.58717,-0.346 -1.00656,-0.34601"
           id="path3101"
           style="font-weight:bold;fill:#2a9533;font-family:PF Bulletin Sans Pro;-inkscape-font-specification:PF Bulletin Sans Pro Bold" />
        <path
           d="m 491.89195,405.57513 0,-15.16132 7.36048,0 c 0.71297,2e-5 1.37352,0.0839 1.98166,0.25164 0.60812,0.14681 1.13237,0.38796 1.57275,0.72347 0.46133,0.33553 0.81782,0.75493 1.06947,1.2582 0.25163,0.48232 0.37745,1.04851 0.37746,1.69857 -10e-6,0.27262 -0.0315,0.5662 -0.0944,0.88074 -0.0629,0.31456 -0.16777,0.61863 -0.31455,0.9122 -0.1468,0.27262 -0.34602,0.53474 -0.59765,0.78637 -0.23068,0.23068 -0.51377,0.40893 -0.84928,0.53474 0.9017,0.25165 1.5308,0.7025 1.8873,1.35256 0.37745,0.65008 0.56618,1.35258 0.56619,2.10749 -1e-5,0.67105 -0.13632,1.28966 -0.40892,1.85585 -0.25165,0.56619 -0.61862,1.05898 -1.10092,1.47838 -0.46135,0.39843 -1.02754,0.72347 -1.69857,0.97511 -0.65008,0.23067 -1.37355,0.346 -2.1704,0.346 l -7.58066,0 m 8.42995,-4.87552 c -1e-5,-0.54522 -0.16777,-0.94365 -0.50328,-1.1953 -0.31456,-0.25163 -0.75493,-0.37745 -1.32111,-0.37746 l -2.13895,0 0,3.11405 2.20186,0 c 0.46133,10e-6 0.87024,-0.11533 1.22674,-0.346 0.35648,-0.25164 0.53473,-0.65007 0.53474,-1.19529 m -0.53474,-5.72482 c -1e-5,-0.44036 -0.16777,-0.74442 -0.50328,-0.91219 -0.31456,-0.18872 -0.60814,-0.28309 -0.88074,-0.2831 l -2.04458,0 0,2.64222 1.85585,0 c 0.46133,1e-5 0.83879,-0.10484 1.13238,-0.31455 0.29357,-0.20969 0.44036,-0.58715 0.44037,-1.13238"
           id="path3103"
           style="font-weight:bold;fill:#2a9533;font-family:PF Bulletin Sans Pro;-inkscape-font-specification:PF Bulletin Sans Pro Bold" />
        <path
           d="m 520.65365,405.3864 c -0.65009,0.16776 -1.30016,0.30407 -1.95021,0.40892 -0.62912,0.12582 -1.17434,0.18873 -1.63566,0.18873 -0.60814,0 -1.06948,-0.10485 -1.38402,-0.31455 -0.29359,-0.18873 -0.49281,-0.52425 -0.59765,-1.00656 l -0.15728,-0.6291 -1.63566,1.03801 c -0.4194,0.25164 -0.81783,0.47183 -1.19529,0.66056 -0.37746,0.18873 -0.72347,0.27261 -1.03801,0.25164 -1.00657,0 -1.80343,-0.15728 -2.39058,-0.47183 -0.5662,-0.31455 -1.00657,-0.70249 -1.32112,-1.16383 -0.29358,-0.48231 -0.48231,-0.98559 -0.56619,-1.50984 -0.0839,-0.52425 -0.12582,-0.99607 -0.12582,-1.41548 0,-1.02752 0.23067,-1.86632 0.69201,-2.5164 0.48231,-0.67103 1.10093,-1.20577 1.85585,-1.60421 0.77589,-0.39842 1.63566,-0.68151 2.57931,-0.84928 0.96462,-0.16775 1.91875,-0.2726 2.86241,-0.31455 l 0,-0.6291 c -1e-5,-0.67103 -0.17825,-1.16383 -0.53474,-1.47839 -0.33552,-0.33551 -0.90171,-0.50327 -1.69857,-0.50328 -0.60813,1e-5 -1.24772,0.0524 -1.91875,0.15728 -0.67105,0.10486 -1.31063,0.24116 -1.91876,0.40891 l -0.72347,-2.86241 c 0.98559,-0.41938 1.95021,-0.72345 2.89387,-0.91219 0.96461,-0.18872 1.78244,-0.28308 2.45349,-0.2831 1.92923,2e-5 3.4181,0.39845 4.46661,1.19529 1.06946,0.79688 1.60419,2.15993 1.60421,4.08916 l 0,7.14029 1.38402,0 0,2.92531 m -5.97646,-6.66846 c -0.31455,0.021 -0.68153,0.0629 -1.10092,0.12582 -0.39844,0.0629 -0.78638,0.17825 -1.16384,0.346 -0.35649,0.16777 -0.66056,0.39844 -0.91219,0.69202 -0.23068,0.29358 -0.34601,0.68153 -0.34601,1.16383 0,0.52426 0.0944,0.94366 0.2831,1.2582 0.18872,0.31456 0.53473,0.47183 1.03801,0.47183 0.31455,0 0.68152,-0.0944 1.10093,-0.2831 0.44036,-0.20969 0.80734,-0.41939 1.10092,-0.6291 l 0,-3.1455"
           id="path3105"
           style="font-weight:bold;fill:#2a9533;font-family:PF Bulletin Sans Pro;-inkscape-font-specification:PF Bulletin Sans Pro Bold" />
        <path
           d="m 530.75955,399.37849 -3.90043,0 0,6.19664 -4.46661,0 0,-15.16132 4.46661,0 0,5.63045 3.90043,0 0,-5.63045 4.46661,0 0,15.16132 -4.46661,0 0,-6.19664"
           id="path3107"
           style="font-weight:bold;fill:#2a9533;font-family:PF Bulletin Sans Pro;-inkscape-font-specification:PF Bulletin Sans Pro Bold" />
        <path
           d="m 545.99558,399.37849 -3.90042,0 0,6.19664 -4.46661,0 0,-15.16132 4.46661,0 0,5.63045 3.90042,0 0,-5.63045 4.46662,0 0,15.16132 -4.46662,0 0,-6.19664"
           id="path3109"
           style="font-weight:bold;fill:#2a9533;font-family:PF Bulletin Sans Pro;-inkscape-font-specification:PF Bulletin Sans Pro Bold" />
        <path
           d="m 571.58031,390.3509 0,15.22423 -4.52952,0 0,-15.22423 4.52952,0 m -11.92145,12.01582 c 0.35648,1e-5 0.71297,-0.12581 1.06947,-0.37746 0.37745,-0.2726 0.56618,-0.70249 0.56619,-1.28965 -1e-5,-0.52425 -0.18874,-0.89122 -0.56619,-1.10093 -0.3565,-0.23066 -0.79687,-0.346 -1.32111,-0.34601 l -1.98167,0 0,3.11405 2.23331,0 m -6.69992,-11.95291 4.46661,0 0,5.599 3.05114,0 c 0.58715,10e-6 1.19528,0.0734 1.82439,0.22018 0.65006,0.12583 1.23722,0.36699 1.76148,0.72347 0.54521,0.3565 0.98558,0.83881 1.32111,1.44693 0.33551,0.60814 0.50327,1.38403 0.50328,2.32767 -10e-6,0.88075 -0.16777,1.63567 -0.50328,2.26476 -0.33553,0.60813 -0.76542,1.11141 -1.28965,1.50984 -0.52427,0.37746 -1.11143,0.66056 -1.76149,0.84929 -0.62911,0.16776 -1.24772,0.25164 -1.85584,0.25164 l -7.51775,0 0,-15.19278"
           id="path3111"
           style="font-weight:bold;fill:#2a9533;font-family:PF Bulletin Sans Pro;-inkscape-font-specification:PF Bulletin Sans Pro Bold" />
        <path
           d="m 582.9916,396.79918 -2.32767,4.49807 -2.23331,4.27788 -4.30933,0 0,-15.12986 4.30933,0 0,8.8074 0.15728,0.0629 1.03801,-2.07603 3.49151,-6.85719 0,0.0629 4.24643,0 0,15.12986 -4.24643,0 0,-8.77595 -0.12582,0 m -2.07603,-10.38015 c 0.33551,10e-6 0.63958,-0.0734 0.9122,-0.22019 0.2726,-0.14677 0.50327,-0.34599 0.69201,-0.59765 0.20969,-0.25162 0.37745,-0.52423 0.50328,-0.81783 0.12581,-0.31452 0.20969,-0.62907 0.25164,-0.94365 l 2.54785,0 c -10e-6,0.60816 -0.10486,1.23725 -0.31455,1.8873 -0.20971,0.62912 -0.52426,1.2058 -0.94365,1.73003 -0.41941,0.5033 -0.93317,0.9227 -1.54129,1.2582 -0.60814,0.33554 -1.31064,0.5033 -2.10749,0.50328 -0.81784,2e-5 -1.5413,-0.16774 -2.1704,-0.50328 -0.60813,-0.3355 -1.1219,-0.7549 -1.54129,-1.2582 -0.41941,-0.52423 -0.73396,-1.10091 -0.94365,-1.73003 -0.20971,-0.65005 -0.31456,-1.27914 -0.31455,-1.8873 l 2.64222,0 c 0.0839,0.62913 0.32503,1.21628 0.72346,1.76148 0.39843,0.54524 0.93316,0.81785 1.60421,0.81784"
           id="path3113"
           style="font-weight:bold;fill:#2a9533;font-family:PF Bulletin Sans Pro;-inkscape-font-specification:PF Bulletin Sans Pro Bold" />
        <path
           d="m 311.85914,432.40627 1.22674,-4.27788 1.95021,-6.25955 4.56098,0 -7.32902,21.45232 -4.30934,0 2.1704,-6.95156 -1.50984,-1.6042 -4.40371,-12.89656 4.74971,0 1.73003,6.51119 1.03801,4.02624 0.12583,0"
           id="path3115"
           style="font-weight:bold;fill:#2a9533;font-family:PF Bulletin Sans Pro;-inkscape-font-specification:PF Bulletin Sans Pro Bold" />
        <path
           d="m 325.12873,421.90029 0,3.39714 c 0,0.54524 0.0105,1.01706 0.0315,1.41548 0.0419,0.37747 0.11533,0.69202 0.22018,0.94365 0.12582,0.25165 0.29358,0.44038 0.50328,0.56619 0.23067,0.10486 0.54522,0.15728 0.94365,0.15728 0.46134,0 0.89122,-0.0839 1.28966,-0.25164 0.39842,-0.18873 0.71297,-0.35649 0.94365,-0.50328 l 0,-5.72482 4.52952,0 0,15.12987 -4.49807,0 0,-6.38537 c -0.69201,0.37746 -1.36305,0.65007 -2.01312,0.81783 -0.6291,0.16776 -1.18481,0.25164 -1.66711,0.25164 -0.88075,0 -1.62518,-0.1363 -2.23331,-0.40892 -0.60813,-0.2726 -1.10093,-0.63958 -1.47839,-1.10092 -0.37746,-0.46134 -0.65007,-1.00656 -0.81783,-1.63566 -0.16776,-0.6291 -0.25164,-1.30014 -0.25164,-2.01313 l 0,-4.65534 4.49807,0"
           id="path3117"
           style="font-weight:bold;fill:#2a9533;font-family:PF Bulletin Sans Pro;-inkscape-font-specification:PF Bulletin Sans Pro Bold" />
        <path
           d="m 340.77515,430.7077 c 0.021,0.48231 0.0734,0.93317 0.15727,1.35256 0.10485,0.39844 0.26212,0.74444 0.47183,1.03802 0.23066,0.29358 0.53473,0.52425 0.9122,0.69201 0.37745,0.16776 0.87024,0.25164 1.47838,0.25164 0.46133,0 1.00655,-0.0315 1.63566,-0.0944 0.62909,-0.0839 1.41547,-0.29357 2.35913,-0.6291 l 0.84928,2.92532 c -0.85978,0.4194 -1.74052,0.72347 -2.64222,0.9122 -0.88075,0.2097 -1.79294,0.31455 -2.73658,0.31455 -1.48888,0 -2.70514,-0.22019 -3.64879,-0.66056 -0.94365,-0.44037 -1.68809,-1.02753 -2.2333,-1.76148 -0.52426,-0.73395 -0.89123,-1.57275 -1.10093,-2.5164 -0.18873,-0.96462 -0.2831,-1.95021 -0.28309,-2.95677 -10e-6,-0.44037 0.021,-0.94365 0.0629,-1.50984 0.0629,-0.58716 0.16775,-1.17432 0.31455,-1.76149 0.16775,-0.60811 0.39842,-1.19527 0.69201,-1.76148 0.31454,-0.58714 0.72346,-1.10091 1.22674,-1.54129 0.50328,-0.46133 1.11141,-0.8283 1.82439,-1.10093 0.73395,-0.29356 1.6042,-0.44035 2.61077,-0.44037 1.55177,2e-5 2.75755,0.2936 3.61733,0.88074 0.85976,0.56621 1.49934,1.30016 1.91875,2.20185 0.41939,0.88076 0.67103,1.87683 0.75492,2.98823 0.0839,1.09045 0.1363,2.14943 0.15728,3.17696 l -8.39849,0 m 3.90042,-2.35913 c -1e-5,-0.4823 -0.021,-0.94364 -0.0629,-1.38402 -0.0419,-0.46133 -0.13631,-0.85976 -0.28309,-1.19529 -0.1468,-0.33551 -0.34602,-0.59763 -0.59765,-0.78638 -0.25165,-0.20968 -0.58717,-0.31453 -1.00656,-0.31455 -0.37747,2e-5 -0.69202,0.10487 -0.94365,0.31455 -0.23068,0.18875 -0.42989,0.45087 -0.59765,0.78638 -0.14679,0.31456 -0.26213,0.7025 -0.346,1.16383 -0.0629,0.44038 -0.10486,0.91221 -0.12582,1.41548 l 3.96333,0"
           id="path3119"
           style="font-weight:bold;fill:#2a9533;font-family:PF Bulletin Sans Pro;-inkscape-font-specification:PF Bulletin Sans Pro Bold" />
        <path
           d="m 355.48234,423.18995 c 0.41939,-0.33551 0.91219,-0.59763 1.47838,-0.78638 0.56619,-0.18871 1.12189,-0.28308 1.66712,-0.28309 1.06946,1e-5 1.99214,0.17826 2.76804,0.53473 0.77588,0.35651 1.41547,0.85979 1.91876,1.50984 0.50326,0.65009 0.87024,1.42598 1.10092,2.32767 0.25163,0.88075 0.37745,1.85586 0.37746,2.92532 -1e-5,2.57932 -0.61863,4.56098 -1.85584,5.945 -1.21627,1.38402 -2.97775,2.07603 -5.28445,2.07603 -1.38402,0 -2.5164,-0.22018 -3.39714,-0.66055 -0.85977,-0.46134 -1.5413,-1.10093 -2.04457,-1.91876 -0.50329,-0.81783 -0.84929,-1.79293 -1.03802,-2.92532 -0.16776,-1.13237 -0.25164,-2.38009 -0.25164,-3.74314 0,-1.13238 0.0839,-2.28572 0.25164,-3.46006 0.18873,-1.19527 0.52425,-2.32765 1.00656,-3.39714 0.48231,-1.06945 1.14286,-2.05504 1.98167,-2.95677 0.85976,-0.90169 1.97117,-1.64613 3.33423,-2.23331 0.73394,-0.35647 1.50983,-0.69199 2.32767,-1.00656 0.81782,-0.3355 1.70905,-0.69199 2.67368,-1.06947 l 1.16383,3.08259 c -0.83881,0.41942 -1.73003,0.81785 -2.67367,1.19529 -0.94366,0.37748 -1.78246,0.74446 -2.51641,1.10093 -1.09044,0.52427 -1.84536,1.12191 -2.26476,1.79294 -0.4194,0.65008 -0.69201,1.28967 -0.81783,1.91875 l 0.0944,0.0315 m 2.48494,2.07603 c -0.81783,10e-6 -1.37354,0.3565 -1.66711,1.06947 -0.27262,0.71299 -0.40892,1.76149 -0.40892,3.1455 0,1.74052 0.14679,2.96726 0.44037,3.68024 0.31455,0.69201 0.8388,1.03802 1.57275,1.03802 0.73395,0 1.2582,-0.34601 1.57276,-1.03802 0.33551,-0.71298 0.50327,-1.8873 0.50328,-3.52296 -10e-6,-1.4679 -0.1468,-2.55834 -0.44037,-3.27133 -0.27262,-0.73393 -0.79687,-1.10091 -1.57276,-1.10092"
           id="path3121"
           style="font-weight:bold;fill:#2a9533;font-family:PF Bulletin Sans Pro;-inkscape-font-specification:PF Bulletin Sans Pro Bold" />
        <path
           d="m 375.26607,430.83352 -3.90042,0 0,6.19664 -4.46662,0 0,-15.16132 4.46662,0 0,5.63045 3.90042,0 0,-5.63045 4.46661,0 0,15.16132 -4.46661,0 0,-6.19664"
           id="path3123"
           style="font-weight:bold;fill:#2a9533;font-family:PF Bulletin Sans Pro;-inkscape-font-specification:PF Bulletin Sans Pro Bold" />
        <path
           d="m 388.64625,437.47053 c -1.27917,0 -2.34864,-0.22019 -3.20841,-0.66056 -0.85977,-0.44037 -1.55178,-1.01704 -2.07603,-1.73002 -0.50328,-0.73395 -0.87026,-1.57275 -1.10093,-2.51641 -0.2097,-0.96461 -0.31455,-1.97117 -0.31455,-3.01968 0,-0.96461 0.10485,-1.92923 0.31455,-2.89386 0.2097,-0.96461 0.57668,-1.82438 1.10093,-2.57931 0.52425,-0.77588 1.22674,-1.39449 2.10749,-1.85585 0.88073,-0.48229 1.98166,-0.72345 3.30277,-0.72346 1.30014,1e-5 2.38009,0.2202 3.23987,0.66055 0.88073,0.44039 1.57274,1.02755 2.07603,1.76148 0.52424,0.73397 0.89121,1.58325 1.10093,2.54786 0.23065,0.94366 0.34599,1.92925 0.346,2.95677 -10e-6,1.00657 -0.10486,1.99216 -0.31455,2.95677 -0.20971,0.96463 -0.57669,1.8244 -1.10092,2.57932 -0.52426,0.75492 -1.23724,1.36305 -2.13894,1.82439 -0.88075,0.46134 -1.99216,0.69201 -3.33424,0.69201 m 0.12582,-12.8022 c -0.44037,2e-5 -0.79686,0.11535 -1.06947,0.34601 -0.27261,0.20971 -0.48231,0.51378 -0.6291,0.91219 -0.14679,0.39845 -0.25164,0.88075 -0.31455,1.44694 -0.0419,0.56619 -0.0629,1.18481 -0.0629,1.85584 0,1.6147 0.12582,2.85193 0.37746,3.71169 0.27261,0.83881 0.8388,1.25821 1.69857,1.25821 0.81783,0 1.35256,-0.40892 1.60421,-1.22675 0.2726,-0.81783 0.40891,-2.04457 0.40892,-3.68024 -1e-5,-0.692 -0.0315,-1.3211 -0.0944,-1.8873 -0.0419,-0.56618 -0.13631,-1.04849 -0.28309,-1.44693 -0.1468,-0.41939 -0.3565,-0.73394 -0.62911,-0.94365 -0.25164,-0.23066 -0.58716,-0.34599 -1.00656,-0.34601"
           id="path3125"
           style="font-weight:bold;fill:#2a9533;font-family:PF Bulletin Sans Pro;-inkscape-font-specification:PF Bulletin Sans Pro Bold" />
        <path
           d="m 398.02133,427.24764 8.65013,0 0,3.30278 -8.65013,0 0,-3.30278"
           id="path3127"
           style="font-weight:bold;fill:#2a9533;font-family:PF Bulletin Sans Pro;-inkscape-font-specification:PF Bulletin Sans Pro Bold" />
        <path
           d="m 417.65663,430.83352 -3.90043,0 0,6.19664 -4.46661,0 0,-15.16132 4.46661,0 0,5.63045 3.90043,0 0,-5.63045 4.46661,0 0,15.16132 -4.46661,0 0,-6.19664"
           id="path3129"
           style="font-weight:bold;fill:#2a9533;font-family:PF Bulletin Sans Pro;-inkscape-font-specification:PF Bulletin Sans Pro Bold" />
        <path
           d="m 438.14565,436.84143 c -0.65009,0.16776 -1.30016,0.30406 -1.95022,0.40891 -0.62911,0.12582 -1.17433,0.18873 -1.63566,0.18873 -0.60814,0 -1.06948,-0.10485 -1.38402,-0.31455 -0.29359,-0.18873 -0.4928,-0.52425 -0.59764,-1.00656 l -0.15728,-0.6291 -1.63566,1.03802 c -0.41941,0.25164 -0.81784,0.47182 -1.19529,0.66055 -0.37747,0.18873 -0.72347,0.27261 -1.03802,0.25164 -1.00656,0 -1.80342,-0.15727 -2.39058,-0.47182 -0.56619,-0.31455 -1.00656,-0.7025 -1.32111,-1.16384 -0.29358,-0.48231 -0.48231,-0.98559 -0.56619,-1.50984 -0.0839,-0.52425 -0.12582,-0.99607 -0.12582,-1.41548 0,-1.02752 0.23067,-1.86632 0.69201,-2.5164 0.48231,-0.67103 1.10092,-1.20577 1.85585,-1.6042 0.77588,-0.39843 1.63565,-0.68152 2.57931,-0.84929 0.96461,-0.16775 1.91875,-0.2726 2.86241,-0.31455 l 0,-0.6291 c -1e-5,-0.67103 -0.17826,-1.16382 -0.53474,-1.47839 -0.33553,-0.3355 -0.90172,-0.50326 -1.69857,-0.50328 -0.60814,2e-5 -1.24772,0.0524 -1.91876,0.15728 -0.67104,0.10486 -1.31063,0.24117 -1.91875,0.40891 l -0.72347,-2.8624 c 0.98559,-0.41939 1.95021,-0.72345 2.89386,-0.9122 0.96462,-0.18871 1.78245,-0.28308 2.4535,-0.28309 1.92923,1e-5 3.4181,0.39844 4.46661,1.19529 1.06946,0.79687 1.60419,2.15992 1.6042,4.08915 l 0,7.14029 1.38403,0 0,2.92532 m -5.97646,-6.66847 c -0.31456,0.021 -0.68153,0.0629 -1.10092,0.12582 -0.39844,0.0629 -0.78639,0.17825 -1.16384,0.34601 -0.3565,0.16776 -0.66056,0.39843 -0.9122,0.69201 -0.23067,0.29358 -0.34601,0.68153 -0.346,1.16383 -10e-6,0.52426 0.0944,0.94366 0.28309,1.2582 0.18873,0.31456 0.53473,0.47183 1.03802,0.47183 0.31454,0 0.68152,-0.0944 1.10093,-0.2831 0.44036,-0.20969 0.80733,-0.41939 1.10092,-0.6291 l 0,-3.1455"
           id="path3131"
           style="font-weight:bold;fill:#2a9533;font-family:PF Bulletin Sans Pro;-inkscape-font-specification:PF Bulletin Sans Pro Bold" />
        <path
           d="m 446.71026,432.40627 1.22674,-4.27788 1.95021,-6.25955 4.56098,0 -7.32902,21.45232 -4.30934,0 2.1704,-6.95156 -1.50984,-1.6042 -4.40371,-12.89656 4.74971,0 1.73003,6.51119 1.03801,4.02624 0.12583,0"
           id="path3133"
           style="font-weight:bold;fill:#2a9533;font-family:PF Bulletin Sans Pro;-inkscape-font-specification:PF Bulletin Sans Pro Bold" />
        <path
           d="m 459.97985,421.90029 0,3.39714 c 0,0.54524 0.0105,1.01706 0.0315,1.41548 0.0419,0.37747 0.11533,0.69202 0.22018,0.94365 0.12582,0.25165 0.29358,0.44038 0.50328,0.56619 0.23067,0.10486 0.54522,0.15728 0.94365,0.15728 0.46134,0 0.89122,-0.0839 1.28966,-0.25164 0.39842,-0.18873 0.71297,-0.35649 0.94365,-0.50328 l 0,-5.72482 4.52952,0 0,15.12987 -4.49806,0 0,-6.38537 c -0.69202,0.37746 -1.36306,0.65007 -2.01313,0.81783 -0.6291,0.16776 -1.18481,0.25164 -1.66711,0.25164 -0.88075,0 -1.62518,-0.1363 -2.23331,-0.40892 -0.60813,-0.2726 -1.10093,-0.63958 -1.47838,-1.10092 -0.37747,-0.46134 -0.65008,-1.00656 -0.81784,-1.63566 -0.16776,-0.6291 -0.25164,-1.30014 -0.25164,-2.01313 l 0,-4.65534 4.49807,0"
           id="path3135"
           style="font-weight:bold;fill:#2a9533;font-family:PF Bulletin Sans Pro;-inkscape-font-specification:PF Bulletin Sans Pro Bold" />
        <path
           d="m 479.33796,430.83352 -3.90042,0 0,6.19664 -4.46661,0 0,-15.16132 4.46661,0 0,5.63045 3.90042,0 0,-5.63045 4.46661,0 0,15.16132 -4.46661,0 0,-6.19664"
           id="path3137"
           style="font-weight:bold;fill:#2a9533;font-family:PF Bulletin Sans Pro;-inkscape-font-specification:PF Bulletin Sans Pro Bold" />
        <path
           d="m 504.92269,421.80593 0,15.22423 -4.52953,0 0,-15.22423 4.52953,0 m -11.92146,12.01581 c 0.35649,1e-5 0.71298,-0.12581 1.06947,-0.37746 0.37746,-0.2726 0.56619,-0.70249 0.56619,-1.28965 0,-0.52425 -0.18873,-0.89122 -0.56619,-1.10093 -0.35649,-0.23066 -0.79686,-0.346 -1.32111,-0.346 l -1.98166,0 0,3.11404 2.2333,0 m -6.69992,-11.9529 4.46662,0 0,5.59899 3.05113,0 c 0.58716,1e-5 1.19528,0.0734 1.8244,0.22019 0.65005,0.12582 1.23721,0.36698 1.76148,0.72346 0.5452,0.3565 0.98557,0.83881 1.32111,1.44693 0.3355,0.60814 0.50326,1.38403 0.50328,2.32767 -2e-5,0.88075 -0.16778,1.63567 -0.50328,2.26477 -0.33554,0.60813 -0.76542,1.11141 -1.28966,1.50984 -0.52426,0.37746 -1.11142,0.66055 -1.76148,0.84928 -0.62911,0.16776 -1.24772,0.25164 -1.85585,0.25164 l -7.51775,0 0,-15.19277"
           id="path3139"
           style="font-weight:bold;fill:#2a9533;font-family:PF Bulletin Sans Pro;-inkscape-font-specification:PF Bulletin Sans Pro Bold" />
        <path
           d="m 516.33398,428.25421 -2.32767,4.49806 -2.23331,4.27789 -4.30934,0 0,-15.12987 4.30934,0 0,8.80741 0.15728,0.0629 1.03801,-2.07603 3.49151,-6.8572 0,0.0629 4.24643,0 0,15.12987 -4.24643,0 0,-8.77595 -0.12582,0 m -2.07603,-10.38016 c 0.33551,2e-5 0.63957,-0.0734 0.91219,-0.22019 0.2726,-0.14677 0.50327,-0.34598 0.69201,-0.59764 0.20969,-0.25162 0.37745,-0.52423 0.50328,-0.81783 0.12581,-0.31453 0.20969,-0.62908 0.25164,-0.94365 l 2.54786,0 c -10e-6,0.60815 -0.10486,1.23725 -0.31455,1.8873 -0.20971,0.62912 -0.52426,1.20579 -0.94365,1.73002 -0.41941,0.5033 -0.93318,0.9227 -1.5413,1.2582 -0.60814,0.33554 -1.31063,0.5033 -2.10748,0.50329 -0.81784,10e-6 -1.54131,-0.16775 -2.1704,-0.50329 -0.60813,-0.3355 -1.1219,-0.7549 -1.5413,-1.2582 -0.4194,-0.52423 -0.73395,-1.1009 -0.94365,-1.73002 -0.2097,-0.65005 -0.31455,-1.27915 -0.31455,-1.8873 l 2.64223,0 c 0.0839,0.62912 0.32502,1.21628 0.72346,1.76148 0.39842,0.54524 0.93316,0.81785 1.60421,0.81783"
           id="path3141"
           style="font-weight:bold;fill:#2a9533;font-family:PF Bulletin Sans Pro;-inkscape-font-specification:PF Bulletin Sans Pro Bold" />
        <path
           d="m 536.90606,433.60156 4.3408,0 c -10e-6,-1.97118 -0.0105,-3.92139 -0.0315,-5.85063 -1e-5,-1.92923 -1e-5,-3.87944 0,-5.85064 l 4.43516,0 c -10e-6,1.95023 -10e-6,3.88995 0,5.81918 0.021,1.92925 0.0314,3.86897 0.0315,5.81918 l 1.69857,0.0944 -0.0944,7.95813 -3.68024,0 -0.12582,-4.56098 -11.00925,0 0,-15.12987 4.43515,0 0,11.70127"
           id="path3143"
           style="font-weight:bold;fill:#2a9533;font-family:PF Bulletin Sans Pro;-inkscape-font-specification:PF Bulletin Sans Pro Bold" />
        <path
           d="m 553.77234,430.7077 c 0.021,0.48231 0.0734,0.93317 0.15728,1.35256 0.10484,0.39844 0.26212,0.74444 0.47182,1.03802 0.23067,0.29358 0.53473,0.52425 0.9122,0.69201 0.37745,0.16776 0.87024,0.25164 1.47838,0.25164 0.46133,0 1.00655,-0.0315 1.63566,-0.0944 0.62909,-0.0839 1.41547,-0.29357 2.35913,-0.6291 l 0.84929,2.92532 c -0.85979,0.4194 -1.74053,0.72347 -2.64222,0.9122 -0.88076,0.2097 -1.79295,0.31455 -2.73659,0.31455 -1.48888,0 -2.70514,-0.22019 -3.64878,-0.66056 -0.94366,-0.44037 -1.68809,-1.02753 -2.23331,-1.76148 -0.52425,-0.73395 -0.89123,-1.57275 -1.10093,-2.5164 -0.18873,-0.96462 -0.28309,-1.95021 -0.28309,-2.95677 0,-0.44037 0.021,-0.94365 0.0629,-1.50984 0.0629,-0.58716 0.16776,-1.17432 0.31455,-1.76149 0.16776,-0.60811 0.39843,-1.19527 0.69201,-1.76148 0.31455,-0.58714 0.72346,-1.10091 1.22674,-1.54129 0.50328,-0.46133 1.11141,-0.8283 1.8244,-1.10093 0.73394,-0.29356 1.6042,-0.44035 2.61076,-0.44037 1.55177,2e-5 2.75755,0.2936 3.61733,0.88074 0.85976,0.56621 1.49934,1.30016 1.91876,2.20185 0.41938,0.88076 0.67102,1.87683 0.75492,2.98823 0.0839,1.09045 0.13629,2.14943 0.15727,3.17696 l -8.39849,0 m 3.90042,-2.35913 c -10e-6,-0.4823 -0.021,-0.94364 -0.0629,-1.38402 -0.042,-0.46133 -0.13631,-0.85976 -0.28309,-1.19529 -0.1468,-0.33551 -0.34602,-0.59763 -0.59765,-0.78638 -0.25165,-0.20968 -0.58717,-0.31453 -1.00656,-0.31455 -0.37746,2e-5 -0.69201,0.10487 -0.94365,0.31455 -0.23067,0.18875 -0.42989,0.45087 -0.59764,0.78638 -0.1468,0.31456 -0.26213,0.7025 -0.34601,1.16383 -0.0629,0.44038 -0.10485,0.91221 -0.12582,1.41548 l 3.96333,0"
           id="path3145"
           style="font-weight:bold;fill:#2a9533;font-family:PF Bulletin Sans Pro;-inkscape-font-specification:PF Bulletin Sans Pro Bold" />
        <path
           d="m 572.47431,430.83352 -3.90042,0 0,6.19664 -4.46661,0 0,-15.16132 4.46661,0 0,5.63045 3.90042,0 0,-5.63045 4.46662,0 0,15.16132 -4.46662,0 0,-6.19664"
           id="path3147"
           style="font-weight:bold;fill:#2a9533;font-family:PF Bulletin Sans Pro;-inkscape-font-specification:PF Bulletin Sans Pro Bold" />
        <path
           d="m 586.70378,437.03016 -4.46662,0 0,-11.60691 -3.80605,0 0,-3.58587 12.17309,0 0,3.58587 -3.90042,0 0,11.60691"
           id="path3149"
           style="font-weight:bold;fill:#2a9533;font-family:PF Bulletin Sans Pro;-inkscape-font-specification:PF Bulletin Sans Pro Bold" />
        <path
           d="m 596.84018,435.96069 0,7.36047 -4.59243,0 0,-21.45232 3.86896,0 0.69202,1.63566 1.44693,-1.00656 c 0.39842,-0.25163 0.78636,-0.47181 1.16383,-0.66056 0.37745,-0.20968 0.78637,-0.31453 1.22675,-0.31455 0.98558,2e-5 1.79292,0.25166 2.42203,0.75492 0.65006,0.48233 1.15334,1.11143 1.50985,1.8873 0.37744,0.77591 0.63957,1.64616 0.78637,2.61077 0.14678,0.94366 0.22017,1.87682 0.22019,2.7995 -2e-5,0.88074 -0.0944,1.79294 -0.2831,2.73658 -0.16777,0.92269 -0.46135,1.77197 -0.88074,2.54786 -0.39844,0.75492 -0.93318,1.37354 -1.60421,1.85585 -0.65008,0.48231 -1.46791,0.72346 -2.45349,0.72346 -0.37747,0 -0.88075,-0.0944 -1.50984,-0.28309 -0.60814,-0.16776 -1.25821,-0.57668 -1.95021,-1.22675 l -0.0629,0.0315 m 0.0629,-2.57932 c 0.31454,0.20971 0.65006,0.38795 1.00656,0.53474 0.35648,0.14679 0.692,0.22019 1.00656,0.22018 0.37745,1e-5 0.692,-0.12581 0.94365,-0.37746 0.25163,-0.2726 0.44036,-0.61861 0.56619,-1.03801 0.14678,-0.4194 0.24115,-0.90171 0.2831,-1.44693 0.0629,-0.56619 0.0943,-1.13238 0.0944,-1.69857 -10e-6,-1.48887 -0.1468,-2.64222 -0.44037,-3.46006 -0.29359,-0.81781 -0.79687,-1.22673 -1.50984,-1.22674 -0.29359,1e-5 -0.61862,0.0944 -0.9751,0.28309 -0.3565,0.16778 -0.68154,0.36699 -0.97511,0.59765 l 0,7.61211"
           id="path3151"
           style="font-weight:bold;fill:#2a9533;font-family:PF Bulletin Sans Pro;-inkscape-font-specification:PF Bulletin Sans Pro Bold" />
      </g>
    </g>
  </g>
</svg>
